<?xml version="1.0" standalone="no"?>
<!DOCTYPE svg PUBLIC "-//W3C//DTD SVG 20010904//EN"
 "http://www.w3.org/TR/2001/REC-SVG-20010904/DTD/svg10.dtd">
<svg version="1.0" xmlns="http://www.w3.org/2000/svg"
 width="640.000000pt" height="640.000000pt" viewBox="0 0 640.000000 640.000000"
 preserveAspectRatio="xMidYMid meet">
<metadata>
Created by potrace 1.11, written by Peter Selinger 2001-2013
</metadata>
<g transform="translate(0.000000,640.000000) scale(0.100000,-0.100000)"
fill="#000000" stroke="none">
<path d="M4580 6169 c-119 -14 -153 -20 -237 -45 -257 -74 -546 -247 -708
-425 -42 -46 -138 -172 -171 -224 -10 -16 -55 -82 -100 -145 -209 -295 -443
-747 -656 -1265 -38 -93 -74 -181 -80 -195 -9 -21 -25 -28 -99 -47 -370 -91
-753 -453 -880 -833 -25 -76 -32 -116 -35 -195 -2 -55 1 -119 7 -141 10 -37 7
-52 -26 -145 -57 -160 -130 -365 -185 -517 -27 -77 -50 -149 -50 -160 0 -51
79 -82 112 -44 9 9 67 160 129 335 63 174 116 317 119 317 3 -1 29 -22 57 -48
l53 -47 5 -85 c3 -47 7 -119 10 -160 7 -119 14 -227 20 -335 3 -55 8 -131 10
-170 8 -126 14 -219 20 -315 5 -86 9 -97 32 -118 43 -38 105 -12 106 44 1 36
-13 285 -18 339 -3 22 -7 87 -10 145 -3 58 -7 139 -10 180 -3 41 -7 111 -10
155 -2 44 -7 120 -11 169 l-6 89 29 -8 c56 -14 179 -34 215 -35 30 0 38 -4 46
-27 5 -16 60 -167 122 -338 61 -170 142 -395 180 -500 38 -104 89 -248 114
-320 59 -168 75 -197 109 -209 33 -12 55 -1 76 36 13 22 9 37 -44 184 -83 230
-121 337 -229 639 -54 149 -118 325 -143 393 -25 68 -42 126 -38 130 3 4 30 7
58 8 29 1 92 5 142 8 393 29 658 214 763 534 22 67 47 250 39 282 -3 11 -2 20
1 21 19 3 66 7 152 14 52 4 106 8 120 10 14 2 54 6 90 9 143 15 375 48 490 71
14 3 41 8 60 11 258 45 571 167 788 307 76 49 319 237 367 284 45 43 160 173
198 224 105 137 187 392 187 578 -1 176 -65 335 -185 455 -142 143 -370 255
-572 281 l-52 7 20 51 c35 89 62 219 64 312 3 154 -38 260 -136 357 -90 88
-154 115 -289 121 -41 2 -100 0 -130 -4z m260 -97 c93 -41 173 -134 205 -238
14 -48 15 -204 1 -268 -10 -43 -65 -209 -74 -224 -5 -7 -35 -15 -68 -18 -50
-5 -133 -24 -220 -49 -18 -6 -22 1 -38 57 -53 192 -196 341 -376 392 -83 23
-107 27 -207 31 -101 4 -178 -10 -275 -49 -32 -13 -58 -21 -58 -17 1 3 26 26
56 50 229 183 478 302 728 346 104 18 270 12 326 -13z m-835 -413 c-4 -5 -12
-9 -18 -8 -9 0 -8 2 1 6 6 2 9 10 6 15 -4 7 -2 8 5 4 6 -4 9 -12 6 -17z m-130
-19 c-3 -5 -12 -10 -18 -10 -7 0 -6 4 3 10 19 12 23 12 15 0z m60 1 c-9 -8
-36 -10 -30 -2 2 4 11 8 20 8 8 0 13 -3 10 -6z m232 3 c-2 -3 -17 -7 -33 -10
-17 -2 -24 -1 -17 4 13 8 58 14 50 6z m53 -4 c0 -5 -2 -10 -4 -10 -3 0 -8 5
-11 10 -3 6 -1 10 4 10 6 0 11 -4 11 -10z m-259 -33 c-8 -8 -14 -7 -23 2 -11
10 -9 11 6 5 15 -6 17 -4 11 6 -6 9 -4 11 4 5 9 -5 10 -10 2 -18z m211 16 c-6
-2 -10 -9 -7 -13 3 -5 -5 -14 -17 -20 -22 -11 -22 -10 -4 4 11 9 16 16 12 16
-4 0 -4 5 -1 10 3 6 12 10 18 9 9 0 8 -2 -1 -6z m-254 -25 c10 -12 10 -18 1
-24 -8 -5 -9 -3 -4 6 6 10 4 12 -7 7 -12 -4 -14 -1 -11 14 3 11 6 18 7 17 1
-2 7 -10 14 -20z m-78 2 c8 -5 11 -10 5 -10 -5 0 -17 5 -25 10 -8 5 -10 10 -5
10 6 0 17 -5 25 -10z m204 -6 c3 -8 0 -16 -6 -20 -7 -5 -8 -2 -3 6 6 9 4 12
-7 8 -8 -4 -15 -1 -15 6 0 17 25 16 31 0z m199 1 c4 -8 1 -17 -5 -21 -7 -5 -8
-2 -3 6 6 10 4 12 -10 6 -15 -5 -16 -4 -5 9 15 19 16 19 23 0z m126 -8 c8 -10
7 -14 -2 -14 -8 0 -14 6 -14 14 0 7 1 13 2 13 2 0 8 -6 14 -13z m-610 -15 c7
-14 6 -19 -4 -19 -7 0 -11 7 -7 15 4 11 1 13 -8 7 -9 -5 -11 -4 -6 3 10 16 14
15 25 -6z m54 -3 c-4 -15 -8 -17 -14 -8 -6 11 4 28 18 29 0 0 -1 -9 -4 -21z
m148 -2 c-10 -9 -11 -8 -5 6 3 10 9 15 12 12 3 -3 0 -11 -7 -18z m250 -4 c13
-16 12 -17 -3 -4 -10 7 -18 15 -18 17 0 8 8 3 21 -13z m-318 -12 c3 -13 1 -18
-9 -14 -7 2 -10 11 -7 19 7 19 10 18 16 -5z m117 7 c0 -4 -4 -8 -9 -8 -6 0
-12 4 -15 8 -3 5 1 9 9 9 8 0 15 -4 15 -9z m80 8 c0 -3 -4 -8 -10 -11 -5 -3
-10 -1 -10 4 0 6 5 11 10 11 6 0 10 -2 10 -4z m96 -8 c5 -7 3 -8 -6 -3 -9 6
-12 4 -8 -7 4 -8 0 -15 -7 -15 -10 0 -11 5 -4 19 11 21 15 22 25 6z m-226 -38
c0 -10 -3 -21 -7 -23 -5 -3 -8 8 -8 23 0 15 3 26 8 23 4 -2 7 -13 7 -23z m86
5 c2 -12 -2 -12 -17 -5 -23 13 -25 22 -2 13 12 -5 14 -3 8 8 -5 8 -4 11 0 6 5
-4 10 -14 11 -22z m329 -4 c0 -16 -3 -27 -7 -24 -13 7 -7 53 6 53 1 0 1 -13 1
-29z m-525 -2 c0 -4 -6 -11 -12 -15 -7 -4 -10 -4 -6 1 4 4 0 14 -10 21 -15 12
-15 12 6 7 12 -3 22 -9 22 -14z m-120 7 c0 -3 -4 -8 -10 -11 -5 -3 -10 -1 -10
4 0 6 5 11 10 11 6 0 10 -2 10 -4z m-77 -36 c-3 -11 -9 -22 -13 -25 -12 -7 -7
29 5 37 14 10 14 10 8 -12z m357 11 c0 -5 -8 -15 -17 -22 -16 -12 -17 -12 -6
2 7 9 10 19 6 22 -3 4 -1 7 5 7 7 0 12 -4 12 -9z m315 0 c-3 -5 -1 -12 5 -16
5 -3 10 -11 10 -18 0 -6 -7 -2 -15 9 -17 23 -19 34 -4 34 5 0 8 -4 4 -9z m118
-17 c-7 -19 -10 -18 -16 5 -3 13 -1 18 9 14 7 -2 10 -11 7 -19z m-549 0 c5
-14 4 -15 -9 -4 -17 14 -19 20 -6 20 5 0 12 -7 15 -16z m51 -12 c-3 -3 -11 0
-18 7 -9 10 -8 11 6 5 10 -3 15 -9 12 -12z m105 3 c0 -1 -9 -5 -19 -8 -13 -3
-18 -1 -14 9 4 10 33 10 33 -1z m-430 1 c0 -2 -7 -7 -16 -10 -8 -3 -12 -2 -9
4 6 10 25 14 25 6z m860 0 c0 -2 -7 -7 -16 -10 -8 -3 -12 -2 -9 4 6 10 25 14
25 6z m-794 -31 c1 -9 -4 -11 -14 -8 -10 4 -13 2 -8 -5 5 -8 1 -10 -10 -5 -13
5 -15 3 -9 -8 5 -8 4 -11 0 -6 -16 14 -14 36 3 30 10 -4 13 -2 8 5 -5 8 -1 10
10 5 13 -5 15 -3 9 8 -5 8 -4 11 0 6 5 -4 10 -14 11 -22z m406 1 c4 3 9 0 14
-7 5 -8 3 -10 -6 -4 -10 6 -12 3 -7 -11 7 -18 6 -18 -6 -2 -8 10 -16 15 -19
12 -4 -3 -9 0 -14 7 -5 8 -3 10 6 4 10 -6 12 -3 7 11 -7 18 -6 18 6 2 8 -10
16 -15 19 -12z m177 -16 c0 -10 -3 -8 -9 5 -12 27 -12 43 0 25 5 -8 9 -22 9
-30z m135 28 c-5 -7 -2 -9 8 -6 8 4 15 0 15 -7 0 -10 -5 -11 -19 -4 -16 9 -17
29 -2 29 3 0 2 -5 -2 -12z m-493 -13 c5 4 6 -2 2 -11 -4 -11 -8 -13 -11 -6 -2
7 -8 10 -13 7 -5 -4 -6 2 -2 11 4 11 8 13 11 6 2 -7 8 -10 13 -7z m-157 -3 c3
-5 -1 -9 -9 -9 -8 0 -12 4 -9 9 3 4 7 8 9 8 2 0 6 -4 9 -8z m53 -12 c-1 -11
-5 -20 -9 -20 -10 0 -10 4 -2 24 8 22 13 20 11 -4z m160 6 c0 -8 -6 -12 -15
-9 -11 5 -11 7 0 14 7 5 13 9 14 9 0 0 1 -6 1 -14z m352 0 c9 -11 9 -16 0 -22
-8 -5 -9 -3 -4 6 6 10 4 12 -8 7 -11 -4 -14 -2 -10 9 6 17 8 17 22 0z m134 -6
c3 -11 1 -18 -4 -14 -5 3 -9 12 -9 20 0 20 7 17 13 -6z m57 12 c0 -5 -7 -9
-15 -9 -8 0 -12 4 -9 9 3 4 9 8 15 8 5 0 9 -4 9 -8z m-967 -37 c-3 -9 -8 -14
-10 -11 -3 3 -2 9 2 15 9 16 15 13 8 -4z m140 0 c-3 -9 -8 -14 -10 -11 -3 3
-2 9 2 15 9 16 15 13 8 -4z m717 0 c5 3 11 1 14 -4 4 -5 -2 -8 -11 -7 -9 2
-18 8 -19 15 -1 6 0 7 3 1 2 -5 9 -8 13 -5z m-790 -5 c0 -5 -2 -10 -4 -10 -3
0 -8 5 -11 10 -3 6 -1 10 4 10 6 0 11 -4 11 -10z m120 -5 c0 -1 -9 -5 -19 -8
-13 -3 -18 -1 -14 9 4 10 33 10 33 -1z m138 11 c-2 0 -13 -10 -26 -21 -22 -18
-23 -18 -16 0 6 14 4 16 -6 10 -7 -5 -11 -4 -7 1 3 5 17 10 32 10 14 1 25 1
23 0z m68 -8 c3 -4 -1 -5 -10 -4 -8 1 -18 5 -22 8 -3 4 1 5 10 4 8 -1 18 -5
22 -8z m64 2 c-18 -12 -30 -13 -30 -2 0 4 10 9 22 9 18 2 20 0 8 -7z m230 0
c0 -5 -4 -10 -10 -10 -5 0 -10 5 -10 10 0 6 5 10 10 10 6 0 10 -4 10 -10z m63
-9 c3 -13 1 -18 -9 -14 -7 2 -10 11 -7 19 7 19 10 18 16 -5z m182 9 c-3 -5
-12 -10 -18 -10 -7 0 -6 4 3 10 19 12 23 12 15 0z m-924 -23 c-10 -9 -11 -8
-5 6 3 10 9 15 12 12 3 -3 0 -11 -7 -18z m93 1 c-5 -8 -2 -9 9 -5 23 9 21 0
-2 -13 -16 -8 -19 -7 -16 8 5 23 4 22 11 22 3 0 2 -5 -2 -12z m136 -3 c0 -11
-29 -11 -33 -1 -4 10 1 12 14 9 10 -3 19 -7 19 -8z m103 -15 c3 -11 2 -18 -3
-15 -4 3 -10 14 -13 25 -3 11 -2 18 3 15 4 -3 10 -14 13 -25z m478 4 c5 -15 8
-29 5 -31 -2 -2 -8 10 -14 26 -13 38 -5 41 9 5z m-555 -10 c1 -9 0 -13 -4 -10
-3 4 -7 14 -8 22 -1 9 0 13 4 10 3 -4 7 -14 8 -22z m137 7 c3 -13 1 -18 -9
-14 -7 2 -10 11 -7 19 7 19 10 18 16 -5z m488 4 c5 4 6 -2 2 -11 -4 -11 -8
-13 -11 -6 -2 7 -8 10 -13 7 -5 -4 -6 2 -2 11 4 11 8 13 11 6 2 -7 8 -10 13
-7z m-891 -5 c8 -5 11 -10 5 -10 -5 0 -17 5 -25 10 -8 5 -10 10 -5 10 6 0 17
-5 25 -10z m490 0 c0 -5 -4 -10 -10 -10 -5 0 -10 5 -10 10 0 6 5 10 10 10 6 0
10 -4 10 -10z m216 -7 c-2 -9 -9 -19 -17 -21 -11 -3 -11 -1 1 7 8 6 11 11 7
11 -5 0 -5 5 -2 10 9 15 14 12 11 -7z m39 -3 c-3 -5 -12 -10 -18 -10 -7 0 -6
4 3 10 19 12 23 12 15 0z m-438 -6 c-3 -3 -12 -4 -19 -1 -8 3 -5 6 6 6 11 1
17 -2 13 -5z m205 -1 c-6 -2 -9 -10 -6 -15 4 -7 2 -8 -5 -4 -13 9 -5 26 12 25
9 0 8 -2 -1 -6z m272 -5 c-5 -8 -1 -9 12 -5 18 7 18 6 2 -6 -10 -8 -15 -16
-12 -19 3 -4 0 -9 -7 -14 -8 -5 -10 -3 -4 6 6 10 3 12 -11 7 -18 -7 -18 -7 0
8 11 8 16 15 12 15 -4 0 -4 5 -1 10 3 6 8 10 11 10 3 0 2 -5 -2 -12z m-459 -8
c-3 -5 -14 -10 -23 -9 -14 0 -13 2 3 9 27 11 27 11 20 0z m-80 -20 c3 -5 -4
-6 -15 -3 -11 3 -22 9 -25 13 -3 5 4 6 15 3 11 -3 22 -9 25 -13z m120 2 c-3
-3 -11 0 -18 7 -9 10 -8 11 6 5 10 -3 15 -9 12 -12z m58 4 c3 -8 0 -17 -7 -19
-10 -4 -12 1 -9 14 6 23 9 24 16 5z m247 -1 c0 -1 -9 -5 -19 -8 -13 -3 -18 -1
-14 9 4 10 33 10 33 -1z m243 -2 c-5 -12 -3 -14 7 -8 8 5 11 4 6 -3 -4 -6 -13
-9 -22 -5 -11 4 -12 9 -3 19 15 19 20 18 12 -3z m57 13 c0 -2 -7 -7 -16 -10
-8 -3 -12 -2 -9 4 6 10 25 14 25 6z m49 -10 c9 -11 9 -16 -1 -22 -7 -4 -10 -4
-6 1 4 4 3 14 -3 22 -6 7 -9 13 -6 13 2 0 10 -6 16 -14z m-1069 -17 c0 -5 -4
-9 -8 -9 -5 0 -9 7 -9 15 0 8 4 12 9 9 4 -3 8 -9 8 -15z m123 -6 c-4 -10 -2
-14 5 -9 6 3 14 1 18 -5 4 -8 3 -9 -4 -5 -7 4 -12 1 -12 -6 0 -8 -5 -6 -11 5
-5 9 -7 22 -4 27 10 16 15 12 8 -7z m120 2 c-3 -9 -8 -14 -10 -11 -3 3 -2 9 2
15 9 16 15 13 8 -4z m68 -8 c-10 -9 -11 -8 -5 6 3 10 9 15 12 12 3 -3 0 -11
-7 -18z m437 -8 c-3 -8 -7 -3 -11 10 -4 17 -3 21 5 13 5 -5 8 -16 6 -23z m273
-1 c-10 -11 -11 -9 -5 6 6 15 4 17 -6 11 -9 -6 -11 -4 -5 4 5 9 10 10 18 2 8
-8 7 -14 -2 -23z m-620 13 c-8 -5 -10 -14 -6 -22 6 -11 5 -11 -5 -2 -14 12 -6
33 13 33 8 0 7 -3 -2 -9z m35 -20 c-4 -6 -13 -11 -19 -11 -8 0 -7 3 2 9 8 5
10 14 6 22 -6 11 -5 11 5 2 7 -6 9 -16 6 -22z m80 9 c0 -12 -4 -16 -9 -11 -5
5 -6 14 -3 20 10 15 12 14 12 -9z m162 -5 c-3 -3 -9 2 -12 12 -6 14 -5 15 5 6
7 -7 10 -15 7 -18z m114 -11 c-9 -16 -10 -14 -9 8 1 15 6 23 11 18 4 -4 4 -16
-2 -26z m84 21 c-1 -8 -5 -17 -8 -21 -5 -4 -4 16 1 34 3 9 9 -1 7 -13z m39 5
c4 -6 11 -8 16 -5 5 4 9 1 9 -4 0 -15 -11 -13 -34 4 -11 8 -15 15 -9 15 7 0
15 -5 18 -10z m-818 -14 c0 -8 -6 -12 -15 -8 -11 4 -13 1 -7 -8 6 -9 4 -11 -5
-5 -10 6 -9 11 5 22 23 16 22 16 22 -1z m178 -4 c-3 -3 -11 0 -18 7 -9 10 -8
11 6 5 10 -3 15 -9 12 -12z m379 2 c3 -8 0 -16 -6 -20 -7 -5 -8 -2 -3 6 6 9 4
12 -7 8 -8 -4 -15 -1 -15 6 0 17 25 16 31 0z m426 -9 c0 -2 -5 -7 -12 -11 -7
-5 -8 -3 -3 6 6 9 4 12 -7 8 -8 -4 -15 0 -15 7 0 10 5 11 19 4 10 -5 18 -12
18 -14z m-233 -1 c-3 -3 -12 -4 -19 -1 -8 3 -5 6 6 6 11 1 17 -2 13 -5z m62
-12 c7 -14 6 -19 -4 -19 -7 0 -11 7 -7 15 4 11 1 13 -8 7 -9 -5 -11 -4 -6 3
10 16 14 15 25 -6z m-972 -14 c2 -17 0 -19 -7 -8 -5 8 -6 18 -4 22 8 12 10 10
11 -14z m98 12 c4 -6 11 -8 16 -5 5 4 9 1 9 -4 0 -15 -11 -13 -34 4 -11 8 -15
15 -9 15 7 0 15 -5 18 -10z m322 4 c-3 -3 -12 -4 -19 -1 -8 3 -5 6 6 6 11 1
17 -2 13 -5z m123 2 c0 -2 -7 -9 -15 -16 -13 -11 -14 -10 -9 4 5 14 24 23 24
12z m200 0 c0 -2 -8 -10 -17 -17 -16 -13 -17 -12 -4 4 13 16 21 21 21 13z
m151 -14 c-7 -2 -18 1 -23 6 -8 8 -4 9 13 5 13 -4 18 -8 10 -11z m181 -14 c-8
-8 -9 -4 -5 13 4 13 8 18 11 10 2 -7 -1 -18 -6 -23z m-1012 7 c0 -1 -9 -5 -19
-8 -13 -3 -18 -1 -14 9 4 10 33 10 33 -1z m124 3 c-3 -4 -9 -8 -15 -8 -5 0 -9
4 -9 8 0 5 7 9 15 9 8 0 12 -4 9 -9z m61 2 c3 -6 -1 -7 -9 -4 -18 7 -21 14 -7
14 6 0 13 -4 16 -10z m68 -4 c4 -10 0 -12 -15 -8 -15 4 -17 7 -6 13 17 11 15
11 21 -5z m56 0 c9 -11 9 -16 0 -22 -8 -5 -9 -3 -4 6 6 10 4 12 -8 7 -11 -4
-14 -2 -10 9 6 17 8 17 22 0z m311 3 c0 -4 -9 -7 -19 -6 -11 0 -18 4 -16 7 6
9 35 8 35 -1z m90 -4 c11 -13 10 -14 -5 -9 -14 6 -16 4 -10 -6 5 -8 4 -11 -3
-6 -6 4 -9 13 -5 21 7 19 8 19 23 0z m345 -3 c-3 -3 -11 0 -18 7 -9 10 -8 11
6 5 10 -3 15 -9 12 -12z m348 -56 c-37 -74 -113 -180 -182 -257 l-41 -44 7 45
c8 52 8 191 0 237 -5 31 -3 33 41 47 58 19 152 41 186 42 l25 2 -36 -72z m331
45 c146 -43 327 -150 411 -243 106 -118 145 -226 146 -403 0 -93 -28 -227 -68
-329 l-20 -49 -6 69 c-10 126 -73 246 -180 348 -215 203 -428 275 -667 226
-52 -11 -99 -20 -103 -20 -4 0 20 33 53 73 79 92 160 215 196 295 l29 64 70
-6 c39 -3 101 -15 139 -25z m-1359 9 c4 -6 -1 -7 -11 -3 -11 4 -15 3 -10 -5 3
-6 1 -14 -5 -18 -8 -4 -9 -3 -5 4 4 7 1 12 -6 12 -9 0 -9 3 2 10 19 12 27 12
35 0z m381 1 c-4 -5 -1 -11 6 -13 7 -3 5 -7 -6 -11 -10 -4 -15 -3 -11 3 3 6 0
10 -7 10 -9 0 -9 3 2 10 19 12 23 12 16 1z m-726 -20 c7 -15 7 -19 -5 -17 -8
1 -18 6 -22 11 -5 4 -2 5 6 0 11 -6 13 -4 8 8 -9 23 0 21 13 -2z m44 7 c-5 -8
-2 -9 10 -5 9 4 15 3 11 -2 -3 -5 0 -11 7 -13 7 -3 5 -7 -6 -11 -9 -4 -15 -3
-12 2 3 5 -1 12 -10 15 -13 5 -12 26 2 26 3 0 2 -5 -2 -12z m89 -5 c-5 -12 -3
-14 7 -8 9 6 11 4 5 -4 -5 -9 -11 -9 -17 -3 -6 6 -7 15 -4 21 11 17 16 13 9
-6z m40 0 c-5 -12 -3 -14 7 -8 9 6 11 4 5 -4 -5 -9 -11 -9 -17 -3 -6 6 -7 15
-4 21 11 17 16 13 9 -6z m188 -17 c-14 -36 -22 -33 -9 5 6 16 12 28 14 26 3
-2 0 -16 -5 -31z m486 19 c0 -8 -4 -12 -9 -9 -4 3 -8 9 -8 15 0 5 4 9 8 9 5 0
9 -7 9 -15z m-425 -20 c-8 -16 -9 -16 -15 -1 -4 10 -3 15 3 11 6 -3 10 -1 10
6 0 7 3 10 6 6 3 -3 2 -13 -4 -22z m224 5 c5 1 10 -4 12 -12 3 -11 2 -11 -6 0
-5 8 -13 13 -18 12 -5 -1 -10 4 -12 12 -3 11 -2 11 6 0 5 -8 13 -13 18 -12z
m120 -6 c1 -9 0 -13 -4 -10 -3 4 -7 14 -8 22 -1 9 0 13 4 10 3 -4 7 -14 8 -22z
m-798 -19 c-3 -3 -9 2 -12 12 -6 14 -5 15 5 6 7 -7 10 -15 7 -18z m235 10 c-3
-9 -8 -14 -10 -11 -3 3 -2 9 2 15 9 16 15 13 8 -4z m85 -10 c-3 -3 -9 2 -12
12 -6 14 -5 15 5 6 7 -7 10 -15 7 -18z m277 15 c-3 -5 -1 -10 6 -10 7 0 10 -3
6 -6 -9 -9 -28 6 -22 17 4 5 8 9 11 9 3 0 2 -4 -1 -10z m241 1 c-4 -5 -1 -11
6 -13 7 -3 5 -7 -6 -11 -10 -4 -15 -3 -11 3 3 6 0 10 -7 10 -9 0 -9 3 2 10 19
12 23 12 16 1z m-863 -23 c-2 -5 -13 -8 -23 -8 -10 0 -21 3 -23 8 -3 4 8 7 23
7 15 0 26 -3 23 -7z m320 0 c-2 -5 -13 -8 -23 -8 -10 0 -21 3 -23 8 -3 4 8 7
23 7 15 0 26 -3 23 -7z m-210 -17 c3 -13 1 -18 -9 -14 -7 2 -10 11 -7 19 7 19
10 18 16 -5z m281 11 c3 -5 -1 -9 -9 -9 -8 0 -12 4 -9 9 3 4 7 8 9 8 2 0 6 -4
9 -8z m196 -2 c0 -5 -5 -10 -11 -10 -5 0 -7 5 -4 10 3 6 8 10 11 10 2 0 4 -4
4 -10z m93 -4 c4 -10 0 -12 -15 -8 -15 4 -17 7 -6 13 17 11 15 11 21 -5z m122
-7 c5 -5 -5 -4 -23 2 -17 6 -32 13 -32 16 0 7 43 -8 55 -18z m115 11 c0 -5 -8
-10 -17 -10 -15 0 -16 2 -3 10 19 12 20 12 20 0z m-492 -25 c-3 -3 -9 2 -12
12 -6 14 -5 15 5 6 7 -7 10 -15 7 -18z m137 6 c3 -6 -5 -15 -17 -21 -21 -10
-21 -10 -6 3 10 8 15 17 11 20 -3 4 -4 7 0 7 3 0 8 -4 12 -9z m68 -8 c-4 -10
-2 -14 5 -9 15 9 26 -14 13 -27 -9 -9 -10 -7 -5 7 5 13 4 17 -4 12 -13 -8 -26
10 -17 24 10 16 15 12 8 -7z m118 0 c-5 -10 -9 -22 -9 -26 0 -5 -4 -12 -8 -15
-4 -4 -3 -1 1 7 6 11 4 13 -8 8 -11 -4 -14 -2 -10 8 3 8 9 13 13 10 4 -3 10 2
14 10 3 8 8 15 11 15 3 0 1 -8 -4 -17z m122 2 c-3 -9 -8 -14 -10 -11 -3 3 -2
9 2 15 9 16 15 13 8 -4z m-927 -21 c1 -9 0 -13 -4 -10 -3 4 -7 14 -8 22 -1 9
0 13 4 10 3 -4 7 -14 8 -22z m74 11 c-7 -8 -16 -13 -20 -10 -5 3 -11 1 -15 -5
-3 -5 -11 -10 -18 -10 -6 0 -2 6 8 14 11 8 23 12 27 10 4 -2 9 0 13 6 3 5 9
10 12 10 3 0 0 -7 -7 -15z m40 1 c-1 -5 4 -13 12 -18 11 -8 11 -9 0 -6 -8 2
-13 7 -12 12 1 5 -4 13 -12 18 -11 8 -11 9 0 6 8 -2 13 -7 12 -12z m90 10 c0
-2 -8 -10 -17 -17 -16 -13 -17 -12 -4 4 13 16 21 21 21 13z m237 -2 c-3 -3
-12 -4 -19 -1 -8 3 -5 6 6 6 11 1 17 -2 13 -5z m440 -9 c0 -8 -4 -12 -9 -9 -4
3 -8 0 -8 -7 0 -7 -3 -9 -6 -6 -4 4 -1 13 6 22 15 19 17 19 17 0z m-433 -21
c3 -8 2 -12 -4 -9 -6 3 -10 10 -10 16 0 14 7 11 14 -7z m189 1 c-3 -9 -8 -14
-10 -11 -3 3 -2 9 2 15 9 16 15 13 8 -4z m548 -8 c-10 -9 -11 -8 -5 6 3 10 9
15 12 12 3 -3 0 -11 -7 -18z m-1218 -11 c3 -6 -3 -12 -12 -12 -9 0 -17 8 -17
17 0 18 22 15 29 -5z m120 3 c-4 -15 -8 -17 -14 -8 -6 11 4 28 18 29 0 0 -1
-9 -4 -21z m602 -9 c3 -5 -4 -6 -15 -3 -11 3 -22 9 -25 13 -3 5 4 6 15 3 11
-3 22 -9 25 -13z m75 2 c0 -5 -7 -9 -15 -9 -8 0 -12 4 -9 9 3 4 9 8 15 8 5 0
9 -4 9 -8z m64 0 c3 -5 -1 -9 -9 -9 -8 0 -15 4 -15 9 0 4 4 8 9 8 6 0 12 -4
15 -8z m-627 -8 c-3 -3 -12 -4 -19 -1 -8 3 -5 6 6 6 11 1 17 -2 13 -5z m238
-3 c3 -5 2 -12 -3 -15 -5 -3 -9 1 -9 9 0 17 3 19 12 6z m-435 -8 c0 -5 -5 -15
-10 -23 -7 -12 -9 -10 -7 8 1 19 17 33 17 15z m157 -8 c0 -8 -4 -12 -9 -9 -4
3 -8 9 -8 15 0 5 4 9 8 9 5 0 9 -7 9 -15z m634 -8 c-8 -8 -14 -7 -23 2 -11 10
-9 11 6 5 15 -6 17 -4 11 6 -6 9 -4 11 4 5 9 -5 10 -10 2 -18z m370 4 c-6 -10
-7 -22 -3 -27 4 -5 -2 -2 -13 6 -30 21 -32 24 -13 17 9 -3 19 0 22 9 3 8 8 14
11 14 3 0 1 -8 -4 -19z m-1108 -12 c-8 -8 -13 -7 -18 2 -5 8 -4 10 3 5 7 -4
12 -2 12 5 0 7 3 9 7 6 4 -4 2 -12 -4 -18z m62 -9 c-3 -4 0 -11 5 -13 7 -4 6
-5 0 -3 -7 1 -10 5 -8 8 2 4 -6 14 -17 23 -19 16 -19 16 3 5 12 -6 20 -15 17
-20z m640 1 c-6 -5 -25 10 -25 20 0 5 6 4 14 -3 8 -7 12 -15 11 -17z m-494
-13 c-10 -11 -11 -9 -5 6 6 15 4 17 -6 11 -9 -6 -11 -4 -5 4 5 9 10 10 18 2 8
-8 7 -14 -2 -23z m76 18 c0 -8 -6 -12 -15 -8 -11 4 -13 1 -7 -8 6 -9 4 -11 -5
-5 -10 6 -9 11 5 22 23 16 22 16 22 -1z m33 -1 c0 -8 -2 -15 -4 -15 -2 0 -6 7
-10 15 -3 8 -1 15 4 15 6 0 10 -7 10 -15z m172 -4 c-4 -10 -7 -11 -10 -3 -2 7
-9 9 -14 6 -6 -4 -8 -3 -5 3 10 16 36 11 29 -6z m142 -7 c7 -19 2 -18 -19 6
-16 17 -16 20 -3 15 9 -4 19 -13 22 -21z m356 16 c0 -5 -5 -10 -11 -10 -5 0
-7 5 -4 10 3 6 8 10 11 10 2 0 4 -4 4 -10z m-1145 -19 c-3 -6 2 -14 11 -19 15
-8 14 -10 -3 -14 -15 -4 -19 -1 -17 16 3 26 3 26 10 26 3 0 3 -4 -1 -9z m179
-7 c3 -8 2 -12 -4 -9 -6 3 -10 10 -10 16 0 14 7 11 14 -7z m569 -5 c-4 -15 -8
-17 -14 -8 -6 11 4 28 18 29 0 0 -1 -9 -4 -21z m480 1 c-3 -12 -8 -19 -11 -16
-5 6 5 36 12 36 2 0 2 -9 -1 -20z m-1082 -13 c-10 -9 -11 -8 -5 6 3 10 9 15
12 12 3 -3 0 -11 -7 -18z m199 8 c0 -11 -29 -11 -33 -1 -4 10 1 12 14 9 10 -3
19 -7 19 -8z m494 2 c-3 -8 -11 -14 -19 -14 -21 0 -19 15 3 20 9 3 18 5 19 6
1 0 0 -5 -3 -12z m41 4 c3 -5 2 -12 -3 -15 -5 -3 -9 1 -9 9 0 17 3 19 12 6z
m-602 -15 c4 -10 0 -12 -15 -8 -15 4 -17 7 -6 13 17 11 15 11 21 -5z m102 -5
c-3 -6 -11 -11 -16 -11 -5 0 -4 6 3 14 14 16 24 13 13 -3z m89 7 c-3 -4 -9 -8
-15 -8 -5 0 -9 4 -9 8 0 5 7 9 15 9 8 0 12 -4 9 -9z m199 -7 c3 -13 1 -18 -9
-14 -7 2 -10 11 -7 19 7 19 10 18 16 -5z m454 4 c5 -4 2 -5 -6 0 -11 6 -13 4
-8 -8 9 -23 0 -21 -13 2 -7 15 -7 19 5 17 8 -1 18 -6 22 -11z m60 -9 c0 -7 -6
-13 -13 -13 -7 0 -10 7 -6 15 4 11 1 13 -8 7 -8 -5 -11 -4 -6 3 8 14 33 5 33
-12z m107 16 c3 -5 -1 -9 -9 -9 -8 0 -15 4 -15 9 0 4 4 8 9 8 6 0 12 -4 15 -8z
m-1227 -37 c0 -8 -4 -12 -9 -9 -4 3 -8 -1 -9 -8 0 -10 -2 -10 -6 0 -2 6 -10 9
-15 6 -7 -4 -8 -2 -4 5 4 6 12 8 18 5 7 -5 9 -1 5 9 -4 10 -2 14 7 11 7 -3 13
-11 13 -19z m121 -6 c-6 -16 -12 -28 -14 -26 -5 5 13 57 20 57 3 0 0 -14 -6
-31z m45 14 c-5 -12 -3 -14 7 -8 9 6 11 4 5 -4 -5 -9 -11 -9 -17 -3 -6 6 -7
15 -4 21 11 17 16 13 9 -6z m191 5 c-5 -7 -2 -9 8 -5 17 6 19 -16 3 -30 -4 -5
-5 -2 0 6 6 11 4 13 -7 8 -11 -4 -15 -1 -13 11 5 23 4 22 11 22 3 0 2 -5 -2
-12z m362 -5 c-3 -3 -1 -15 5 -27 9 -19 9 -19 -4 -4 -8 10 -16 15 -19 12 -3
-2 -8 2 -11 10 -4 11 -1 13 10 9 12 -5 14 -3 8 7 -6 9 -4 11 4 6 7 -5 10 -10
7 -13z m480 -8 c1 -9 -4 -11 -14 -8 -10 4 -13 2 -8 -5 5 -8 1 -10 -10 -5 -13
5 -15 3 -9 -7 6 -9 4 -11 -5 -5 -10 6 -10 11 3 20 9 7 14 15 10 19 -4 4 1 4
11 0 15 -6 17 -4 11 7 -5 8 -4 11 0 6 5 -4 10 -14 11 -22z m-1281 6 c3 -5 2
-12 -3 -15 -5 -3 -9 1 -9 9 0 17 3 19 12 6z m760 -34 c0 -4 7 -12 15 -17 8 -5
10 -10 4 -10 -6 0 -17 7 -24 15 -7 8 -9 15 -4 15 4 0 3 5 -4 12 -7 7 -12 17
-12 23 1 11 24 -25 25 -38z m-611 25 c3 -5 -1 -9 -9 -9 -8 0 -12 4 -9 9 3 4 7
8 9 8 2 0 6 -4 9 -8z m181 -2 c3 -6 -1 -7 -9 -4 -18 7 -21 14 -7 14 6 0 13 -4
16 -10z m55 6 c0 -3 -4 -8 -10 -11 -5 -3 -10 -1 -10 4 0 6 5 11 10 11 6 0 10
-2 10 -4z m256 -5 c-4 -5 -1 -12 4 -14 6 -3 5 -4 -2 -3 -15 3 -23 26 -8 26 6
0 9 -4 6 -9z m529 -1 c3 -6 -1 -7 -9 -4 -18 7 -21 14 -7 14 6 0 13 -4 16 -10z
m-824 -23 c-10 -9 -11 -8 -5 6 3 10 9 15 12 12 3 -3 0 -11 -7 -18z m657 -2
c-3 -3 -9 2 -12 12 -6 14 -5 15 5 6 7 -7 10 -15 7 -18z m117 15 c-3 -5 -12
-10 -18 -10 -7 0 -6 4 3 10 19 12 23 12 15 0z m-515 -15 c0 -12 -19 -12 -23 0
-4 9 -1 12 9 8 7 -3 14 -7 14 -8z m122 -9 c4 3 9 0 14 -7 5 -8 3 -10 -6 -4
-10 6 -12 3 -7 -11 7 -18 6 -18 -6 -2 -8 10 -17 15 -21 11 -4 -4 -4 1 0 11 6
15 4 17 -6 11 -9 -6 -11 -4 -5 5 6 10 11 10 20 -3 7 -9 14 -14 17 -11z m438 9
c0 -1 -7 -8 -15 -15 -13 -11 -14 -10 -9 5 6 14 4 16 -6 10 -8 -5 -11 -4 -6 3
5 9 36 7 36 -3z m-935 -13 c-3 -3 -11 0 -18 7 -9 10 -8 11 6 5 10 -3 15 -9 12
-12z m112 -8 c-5 -5 -57 13 -57 20 0 3 14 0 31 -6 16 -6 28 -12 26 -14z m227
10 c3 -8 2 -12 -4 -9 -6 3 -10 10 -10 16 0 14 7 11 14 -7z m404 2 c-10 -7 -14
-17 -10 -21 4 -5 1 -5 -7 0 -12 7 -11 10 4 22 24 17 36 17 13 -1z m342 -1 c0
-1 -6 -7 -13 -13 -10 -8 -13 -6 -13 7 0 11 6 17 13 14 7 -3 13 -6 13 -8z
m-1290 -3 c0 -5 -7 -9 -15 -9 -8 0 -12 4 -9 9 3 4 9 8 15 8 5 0 9 -4 9 -8z
m51 -9 c13 -16 12 -17 -3 -4 -17 13 -22 21 -14 21 2 0 10 -8 17 -17z m39 2
c11 -13 10 -14 -4 -9 -9 3 -16 10 -16 15 0 13 6 11 20 -6z m155 5 c-3 -5 -12
-10 -18 -10 -7 0 -6 4 3 10 19 12 23 12 15 0z m140 1 c-9 -8 -36 -10 -30 -2 2
4 11 8 20 8 8 0 13 -3 10 -6z m786 -14 c-10 -9 -11 -8 -5 6 3 10 9 15 12 12 3
-3 0 -11 -7 -18z m-1035 4 c-4 -5 -1 -11 6 -13 7 -3 5 -7 -6 -11 -10 -4 -15
-3 -11 3 3 6 0 10 -7 10 -9 0 -9 3 2 10 19 12 23 12 16 1z m898 0 c4 -5 -3 -7
-14 -4 -23 6 -26 13 -6 13 8 0 17 -4 20 -9z m-999 -10 c3 -6 -3 -14 -13 -20
-14 -7 -19 -6 -19 4 0 7 7 11 15 7 10 -3 13 -1 8 6 -4 7 -5 12 -2 12 3 0 7 -4
11 -9z m190 -9 c-3 -3 -11 0 -18 7 -9 10 -8 11 6 5 10 -3 15 -9 12 -12z m432
-4 c2 -18 0 -20 -7 -8 -12 18 -13 30 -2 30 4 0 9 -10 9 -22z m394 -12 c-14
-36 -22 -33 -9 5 6 16 12 28 14 26 3 -2 0 -16 -5 -31z m163 22 c-5 -8 -2 -9
10 -5 11 5 15 3 10 -5 -5 -8 -2 -9 9 -5 9 3 19 1 23 -6 4 -7 4 -9 -1 -5 -4 4
-17 3 -28 -3 -12 -7 -17 -7 -13 -1 3 5 -1 13 -10 16 -13 5 -12 26 2 26 3 0 2
-5 -2 -12z m-1267 -4 c-3 -3 -12 -4 -19 -1 -8 3 -5 6 6 6 11 1 17 -2 13 -5z
m229 -20 c1 -9 0 -13 -4 -10 -3 4 -7 14 -8 22 -1 9 0 13 4 10 3 -4 7 -14 8
-22z m102 10 c8 -2 17 -5 20 -8 3 -4 -4 -5 -16 -3 -12 2 -28 9 -35 17 -10 10
-9 11 3 4 8 -5 21 -9 28 -10z m86 0 c3 -8 2 -12 -4 -9 -6 3 -10 10 -10 16 0
14 7 11 14 -7z m553 3 c0 -8 -6 -14 -14 -14 -9 0 -10 4 -2 14 6 7 12 13 14 13
1 0 2 -6 2 -13z m55 1 c-14 -14 -44 -20 -36 -7 3 5 9 7 14 4 5 -3 11 -1 15 5
3 5 9 10 13 10 3 0 1 -5 -6 -12z m45 6 c-3 -3 -12 -4 -19 -1 -8 3 -5 6 6 6 11
1 17 -2 13 -5z m107 -10 c3 -8 2 -13 -3 -9 -5 3 -11 0 -13 -7 -3 -7 -7 -5 -11
6 -4 10 -3 15 3 11 6 -3 10 -1 10 4 0 16 7 13 14 -5z m-1056 -19 c-3 -3 -9 2
-12 12 -6 14 -5 15 5 6 7 -7 10 -15 7 -18z m323 2 c-10 -9 -11 -8 -5 6 3 10 9
15 12 12 3 -3 0 -11 -7 -18z m144 3 c-3 -4 0 -10 7 -12 7 -3 5 -7 -6 -11 -10
-4 -15 -3 -11 3 3 6 0 10 -7 11 -10 0 -10 2 0 6 6 2 9 10 6 15 -4 7 -2 8 5 4
6 -4 9 -11 6 -16z m85 -12 c0 -19 -16 -5 -17 14 -2 18 0 20 7 8 5 -8 10 -18
10 -22z m110 22 c-8 -5 -19 -10 -25 -10 -5 0 -3 5 5 10 8 5 20 10 25 10 6 0 3
-5 -5 -10z m-515 -10 c-3 -5 -12 -10 -18 -10 -7 0 -6 4 3 10 19 12 23 12 15 0z
m-276 -30 c-6 -16 -13 -30 -15 -30 -8 0 1 45 11 52 15 11 15 11 4 -22z m314 4
c-7 -19 -10 -18 -16 5 -3 13 -1 18 9 14 7 -2 10 -11 7 -19z m730 5 c-4 -15 -8
-17 -14 -8 -6 11 4 28 18 29 0 0 -1 -9 -4 -21z m-629 -15 c7 -19 2 -18 -19 6
-16 17 -16 20 -3 15 9 -4 19 -13 22 -21z m-199 -5 c5 -5 -5 -4 -23 2 -17 6
-32 13 -32 16 0 7 43 -8 55 -18z m45 17 c0 -2 -7 -7 -16 -10 -8 -3 -12 -2 -9
4 6 10 25 14 25 6z m393 -10 c4 -10 0 -12 -15 -8 -15 4 -17 7 -6 13 17 11 15
11 21 -5z m244 -1 c0 -8 -4 -12 -9 -9 -5 3 -6 10 -3 15 9 13 12 11 12 -6z
m268 6 c-9 -8 -36 -10 -30 -2 2 4 11 8 20 8 8 0 13 -3 10 -6z m69 -3 c-3 -4
-11 -5 -19 -1 -21 7 -19 12 4 10 11 0 18 -5 15 -9z m-1198 -33 c3 -19 -10 -19
-26 0 -11 13 -10 14 5 9 14 -6 16 -4 10 7 -5 8 -4 11 0 6 5 -4 10 -14 11 -22z
m122 -6 c-6 -16 -12 -28 -14 -26 -5 5 13 57 20 57 3 0 0 -14 -6 -31z m445 14
c-5 -12 -3 -14 8 -8 8 5 11 4 6 0 -4 -5 -14 -10 -22 -11 -12 -2 -12 2 -5 17
13 23 22 25 13 2z m473 -8 c1 -8 -1 -13 -6 -10 -5 3 -10 0 -12 -7 -3 -7 -7 -3
-10 9 -4 17 -2 20 10 16 11 -5 13 -3 7 8 -5 8 -4 11 0 6 5 -4 10 -14 11 -22z
m127 5 c-3 -11 -10 -23 -16 -27 -5 -3 -8 -2 -5 3 3 5 8 17 11 27 9 24 16 22
10 -3z m-970 -10 c-3 -11 -10 -23 -16 -27 -5 -3 -8 -2 -5 3 3 5 8 17 11 27 9
24 16 22 10 -3z m64 6 c0 -8 -6 -12 -15 -9 -11 5 -11 7 0 14 7 5 13 9 14 9 0
0 1 -6 1 -14z m45 0 c7 4 8 2 4 -5 -4 -6 -12 -8 -18 -5 -8 5 -9 1 -4 -12 5
-14 4 -16 -4 -8 -6 6 -7 19 -3 29 4 11 8 14 11 7 2 -7 9 -9 14 -6z m599 -1 c5
4 6 -2 2 -11 -4 -11 -8 -13 -11 -6 -2 7 -8 10 -12 7 -5 -3 -12 0 -16 6 -4 8
-3 9 4 5 7 -4 12 -1 13 6 0 10 2 10 6 0 2 -6 9 -10 14 -7z m199 -28 c-8 -9 -9
-7 -4 7 5 13 4 17 -4 12 -6 -3 -14 -1 -18 5 -4 8 -3 9 4 5 7 -4 12 -1 12 6 0
8 5 5 11 -5 8 -14 8 -22 -1 -30z m-1036 25 c3 -5 -1 -9 -9 -9 -8 0 -12 4 -9 9
3 4 7 8 9 8 2 0 6 -4 9 -8z m413 -12 c-2 -11 -9 -26 -17 -33 -10 -10 -11 -9
-4 3 9 15 10 20 13 40 0 6 3 10 6 10 3 0 3 -9 2 -20z m169 -2 c0 -17 -2 -17
-12 -4 -6 9 -15 12 -19 8 -5 -4 -5 -2 -2 4 10 18 33 12 33 -8z m194 -9 c0 -5
-5 -9 -12 -9 -6 0 -8 3 -5 7 4 3 1 13 -6 22 -11 14 -10 14 6 2 9 -7 17 -17 17
-22z m116 16 c-1 -8 -6 -18 -11 -22 -4 -5 -5 -2 0 6 6 11 4 13 -11 8 -18 -7
-18 -7 0 8 24 18 25 18 22 0z m309 5 c-3 -5 -12 -10 -18 -10 -7 0 -6 4 3 10
19 12 23 12 15 0z m-930 -28 c-3 -3 -11 0 -18 7 -9 10 -8 11 6 5 10 -3 15 -9
12 -12z m656 -5 c-10 -9 -11 -8 -5 6 3 10 9 15 12 12 3 -3 0 -11 -7 -18z
m-1068 6 c-7 -2 -19 -2 -25 0 -7 3 -2 5 12 5 14 0 19 -2 13 -5z m117 -8 c0
-11 -29 -11 -33 -1 -4 10 1 12 14 9 10 -3 19 -7 19 -8z m137 -11 c-5 -5 -57
13 -57 20 0 3 14 0 31 -6 16 -6 28 -12 26 -14z m903 11 c0 -11 -29 -11 -33 -1
-4 10 1 12 14 9 10 -3 19 -7 19 -8z m105 -3 c-3 -3 -11 0 -18 7 -9 10 -8 11 6
5 10 -3 15 -9 12 -12z m539 -6 c-3 -9 -10 -16 -15 -16 -5 0 -4 9 3 20 14 22
21 20 12 -4z m-1751 0 c4 -10 0 -12 -15 -8 -15 4 -17 7 -6 13 17 11 15 11 21
-5z m271 6 c2 -4 -4 -8 -14 -8 -10 0 -16 4 -14 8 3 4 9 8 14 8 5 0 11 -4 14
-8z m61 -2 c-3 -5 -12 -10 -18 -10 -7 0 -6 4 3 10 19 12 23 12 15 0z m215 -5
c0 -1 -9 -5 -19 -8 -13 -3 -18 -1 -14 9 4 10 33 10 33 -1z m80 11 c0 -3 -4 -8
-10 -11 -5 -3 -10 -1 -10 4 0 6 5 11 10 11 6 0 10 -2 10 -4z m207 -2 c-3 -3
-12 -4 -19 -1 -8 3 -5 6 6 6 11 1 17 -2 13 -5z m116 -13 c3 -13 1 -18 -9 -14
-7 2 -10 11 -7 19 7 19 10 18 16 -5z m112 -11 c-3 -5 -1 -11 5 -15 5 -3 10
-12 10 -18 -1 -11 -24 21 -25 33 0 3 -4 12 -10 20 -8 13 -7 13 8 1 9 -7 15
-17 12 -21z m198 15 c4 -8 3 -16 -1 -19 -4 -3 -9 4 -9 15 -2 23 3 25 10 4z
m-1157 -4 c-4 -5 -1 -11 6 -13 7 -3 5 -7 -6 -11 -10 -4 -15 -3 -11 3 3 6 0 10
-7 10 -9 0 -9 3 2 10 19 12 23 12 16 1z m-154 -20 c-4 -10 -1 -12 9 -6 8 4 11
4 6 0 -11 -12 -47 -13 -54 -2 -4 6 -1 7 7 2 9 -6 12 -4 8 6 -4 10 1 15 12 15
11 0 16 -5 12 -15z m635 -5 c0 -15 -21 -15 -34 -1 -5 4 -2 5 6 0 11 -6 13 -4
8 8 -4 10 -2 14 7 11 7 -3 13 -11 13 -18z m240 18 c-3 -3 -12 -4 -19 -1 -8 3
-5 6 6 6 11 1 17 -2 13 -5z m193 -24 c0 -10 -3 -21 -7 -23 -5 -3 -8 8 -8 23 0
15 3 26 8 23 4 -2 7 -13 7 -23z m125 21 c3 -5 0 -13 -6 -17 -7 -4 -9 -3 -5 4
3 5 0 13 -6 15 -9 4 -10 6 -1 6 6 1 14 -3 18 -8z m-999 -27 c1 -9 0 -13 -4
-10 -3 4 -7 14 -8 22 -1 9 0 13 4 10 3 -4 7 -14 8 -22z m125 16 c9 13 10 13 6
0 -2 -8 -10 -15 -17 -15 -7 0 -15 7 -17 15 -4 13 -3 13 6 0 10 -13 12 -13 22
0z m231 -4 c7 4 8 2 4 -5 -4 -6 -11 -9 -16 -6 -4 3 -10 0 -12 -7 -3 -7 -7 -5
-11 6 -4 10 -3 15 3 11 6 -3 10 0 11 7 0 10 2 10 6 0 2 -6 10 -9 15 -6z m364
-6 c0 -12 -4 -16 -9 -11 -5 5 -6 14 -3 20 10 15 12 14 12 -9z m39 0 c0 -7 -7
-15 -15 -17 -13 -4 -13 -3 0 6 13 10 13 12 0 22 -13 9 -13 10 0 6 8 -2 15 -10
15 -17z m280 10 c3 -6 -1 -7 -9 -4 -18 7 -21 14 -7 14 6 0 13 -4 16 -10z m422
-12 c-3 -8 -6 -5 -6 6 -1 11 2 17 5 13 3 -3 4 -12 1 -19z m36 3 c3 -13 1 -18
-9 -14 -7 2 -10 11 -7 19 7 19 10 18 16 -5z m-409 -6 c-4 -8 -11 -15 -16 -15
-6 0 -5 6 2 15 7 8 14 15 16 15 2 0 1 -7 -2 -15z m262 3 c4 -7 3 -8 -4 -4 -7
4 -12 2 -12 -5 0 -7 -3 -10 -6 -6 -6 5 3 27 11 27 2 0 7 -5 11 -12z m214 2 c0
-5 -5 -10 -11 -10 -5 0 -7 5 -4 10 3 6 8 10 11 10 2 0 4 -4 4 -10z m-1642 -25
c-3 -3 -9 2 -12 12 -6 14 -5 15 5 6 7 -7 10 -15 7 -18z m125 11 c4 -10 0 -12
-15 -8 -15 4 -17 7 -6 13 17 11 15 11 21 -5z m354 -11 c0 -8 -4 -12 -9 -9 -4
3 -8 9 -8 15 0 5 4 9 8 9 5 0 9 -7 9 -15z m-504 -7 c-2 -5 -13 -8 -23 -8 -10
0 -21 3 -23 8 -3 4 8 7 23 7 15 0 26 -3 23 -7z m201 -2 c-3 -9 -12 -12 -22 -9
-15 6 -9 11 25 22 1 1 0 -5 -3 -13z m710 -2 c5 -14 4 -15 -9 -4 -17 14 -19 20
-6 20 5 0 12 -7 15 -16z m1049 1 c-3 -9 -8 -14 -10 -11 -3 3 -2 9 2 15 9 16
15 13 8 -4z m-1709 -3 c3 -5 -1 -9 -9 -9 -8 0 -12 4 -9 9 3 4 7 8 9 8 2 0 6
-4 9 -8z m165 -6 c9 -10 8 -15 -3 -19 -11 -4 -13 -1 -9 10 5 12 3 14 -7 8 -9
-5 -11 -4 -6 3 9 15 11 15 25 -2z m386 -7 c5 -5 -5 -4 -23 2 -17 6 -32 13 -32
16 0 7 43 -8 55 -18z m160 3 c-3 -3 -11 0 -18 7 -9 10 -8 11 6 5 10 -3 15 -9
12 -12z m70 9 c-9 -8 -36 -10 -30 -2 2 4 11 8 20 8 8 0 13 -3 10 -6z m65 -1
c12 -7 10 -9 -8 -7 -12 0 -22 5 -22 9 0 11 12 10 30 -2z m250 0 c0 -5 -5 -10
-11 -10 -5 0 -7 5 -4 10 3 6 8 10 11 10 2 0 4 -4 4 -10z m81 -3 c-6 -8 -8 -17
-4 -20 3 -4 1 -7 -5 -7 -15 0 -15 13 0 28 16 16 23 15 9 -1z m73 4 c-9 -9 -34
-9 -34 -1 0 5 9 8 20 7 10 -1 17 -3 14 -6z m111 -1 c-3 -5 -12 -10 -18 -10 -7
0 -6 4 3 10 19 12 23 12 15 0z m215 -21 c0 -5 -5 -9 -12 -9 -6 0 -8 3 -5 7 4
3 1 13 -6 22 -11 14 -10 14 6 2 9 -7 17 -17 17 -22z m96 16 c-1 -8 -6 -18 -11
-22 -4 -5 -5 -2 0 6 6 11 4 13 -11 8 -18 -7 -18 -7 0 8 24 18 25 18 22 0z
m-1842 -4 c4 -5 -3 -7 -14 -4 -23 6 -26 13 -6 13 8 0 17 -4 20 -9z m601 -1 c3
-6 -1 -7 -9 -4 -18 7 -21 14 -7 14 6 0 13 -4 16 -10z m-579 -24 c0 -14 -5 -21
-9 -17 -4 4 -5 15 -1 24 9 24 12 21 10 -7z m647 9 c-3 -9 -8 -14 -10 -11 -3 3
-2 9 2 15 9 16 15 13 8 -4z m68 -8 c-10 -9 -11 -8 -5 6 3 10 9 15 12 12 3 -3
0 -11 -7 -18z m223 11 c-5 -7 -2 -9 7 -6 9 4 14 -2 14 -17 0 -12 -5 -22 -12
-22 -6 0 -9 7 -5 15 3 9 1 13 -5 9 -7 -4 -10 0 -8 10 5 24 4 23 11 23 3 0 2
-5 -2 -12z m269 -5 c-5 -12 -3 -14 8 -8 8 5 11 5 6 -1 -5 -5 -12 -9 -15 -8 -4
1 -13 -6 -20 -15 -11 -14 -11 -14 -5 3 4 12 3 17 -4 13 -5 -3 -10 0 -10 8 0
10 4 12 12 5 9 -8 14 -6 19 5 3 8 8 15 10 15 3 0 2 -7 -1 -17z m72 -15 c11
-24 12 -28 2 -16 -8 10 -16 15 -19 12 -4 -3 -9 0 -14 7 -5 8 -3 10 6 4 10 -6
12 -4 7 8 -11 30 2 18 18 -15z m393 1 c-3 -8 -7 -3 -11 10 -4 17 -3 21 5 13 5
-5 8 -16 6 -23z m-1758 6 c-7 -8 -16 -13 -20 -10 -5 3 -11 1 -15 -5 -3 -5 -11
-10 -18 -10 -6 0 -2 6 8 14 11 8 23 12 27 10 4 -2 9 0 13 6 3 5 9 10 12 10 3
0 0 -7 -7 -15z m47 9 c-3 -3 -12 -4 -19 -1 -8 3 -5 6 6 6 11 1 17 -2 13 -5z
m397 -9 c-23 -17 -34 -19 -34 -4 0 5 4 8 9 4 5 -3 12 -1 16 5 3 5 11 10 18 10
6 0 2 -7 -9 -15z m243 0 c0 -8 -4 -12 -9 -9 -5 3 -6 10 -3 15 9 13 12 11 12
-6z m224 0 c5 4 6 -2 2 -11 -4 -11 -8 -13 -11 -6 -2 7 -8 10 -13 7 -5 -4 -6 2
-2 11 4 11 8 13 11 6 2 -7 8 -10 13 -7z m76 -7 c-3 -8 -6 -5 -6 6 -1 11 2 17
5 13 3 -3 4 -12 1 -19z m457 7 c-4 -8 -11 -12 -16 -9 -6 4 -5 10 3 15 19 12
19 11 13 -6z m-1604 -5 c8 -5 11 -10 5 -10 -5 0 -17 5 -25 10 -8 5 -10 10 -5
10 6 0 17 -5 25 -10z m100 0 c-8 -5 -19 -10 -25 -10 -5 0 -3 5 5 10 8 5 20 10
25 10 6 0 3 -5 -5 -10z m193 -10 c3 -11 1 -18 -4 -14 -5 3 -9 12 -9 20 0 20 7
17 13 -6z m501 11 c3 -5 -1 -11 -9 -14 -9 -4 -12 -1 -8 9 6 16 10 17 17 5z
m131 -9 c-3 -3 -11 0 -18 7 -9 10 -8 11 6 5 10 -3 15 -9 12 -12z m75 -2 c-6
-11 -13 -20 -16 -20 -2 0 0 9 6 20 6 11 13 20 16 20 2 0 0 -9 -6 -20z m133 0
c3 -11 1 -18 -4 -14 -5 3 -9 12 -9 20 0 20 7 17 13 -6z m542 10 c3 -6 -1 -7
-9 -4 -18 7 -21 14 -7 14 6 0 13 -4 16 -10z m175 0 c0 -5 -5 -10 -11 -10 -5 0
-7 5 -4 10 3 6 8 10 11 10 2 0 4 -4 4 -10z m163 -10 c3 -11 1 -18 -4 -14 -5 3
-9 12 -9 20 0 20 7 17 13 -6z m77 -15 c0 -5 -5 -3 -10 5 -5 8 -10 20 -10 25 0
6 5 3 10 -5 5 -8 10 -19 10 -25z m40 25 c0 -5 -2 -10 -4 -10 -3 0 -8 5 -11 10
-3 6 -1 10 4 10 6 0 11 -4 11 -10z m-1640 -21 c0 -5 -4 -9 -8 -9 -5 0 -9 7 -9
15 0 8 4 12 9 9 4 -3 8 -9 8 -15z m-517 -6 c-5 -12 -3 -14 8 -8 8 5 11 4 6 0
-4 -5 -14 -10 -22 -11 -12 -2 -12 2 -5 17 13 23 22 25 13 2z m79 -2 c-4 -10
-1 -12 9 -6 8 4 11 4 6 0 -11 -12 -47 -13 -54 -2 -4 6 -1 7 7 2 9 -6 12 -4 8
6 -4 10 1 15 12 15 11 0 16 -5 12 -15z m121 -2 c-4 -15 -8 -17 -14 -8 -6 11 4
28 18 29 0 0 -1 -9 -4 -21z m148 -2 c-10 -9 -11 -8 -5 6 3 10 9 15 12 12 3 -3
0 -11 -7 -18z m1339 18 c0 -2 -6 -8 -13 -14 -10 -8 -14 -7 -14 2 0 8 6 14 14
14 7 0 13 -1 13 -2z m305 -4 c-3 -5 -1 -12 5 -16 5 -3 10 -11 10 -18 0 -6 -7
-2 -15 9 -17 23 -19 34 -4 34 5 0 8 -4 4 -9z m198 -17 c-7 -19 -10 -18 -16 5
-3 13 -1 18 9 14 7 -2 10 -11 7 -19z m-1401 -20 c-9 -16 -10 -14 -9 8 1 15 6
23 11 18 4 -4 4 -16 -2 -26z m208 21 c0 -11 -29 -11 -33 -1 -4 10 1 12 14 9
10 -3 19 -7 19 -8z m617 3 c0 -8 -14 -13 -31 -14 l-31 -1 30 13 c17 7 30 13
31 14 0 0 1 -6 1 -12z m30 -10 c-3 -8 -6 -5 -6 6 -1 11 2 17 5 13 3 -3 4 -12
1 -19z m449 13 c-6 -9 -46 -22 -46 -15 0 3 10 9 23 14 29 11 29 11 23 1z m148
-7 c3 -8 2 -12 -4 -9 -6 3 -10 10 -10 16 0 14 7 11 14 -7z m-2276 -19 c-3 -3
-9 2 -12 12 -6 14 -5 15 5 6 7 -7 10 -15 7 -18z m528 13 c5 -7 3 -8 -6 -3 -10
6 -12 4 -7 -7 4 -12 1 -14 -14 -11 -18 5 -19 6 -2 19 22 16 20 16 29 2z m368
4 c3 -5 -1 -9 -9 -9 -8 0 -15 4 -15 9 0 4 4 8 9 8 6 0 12 -4 15 -8z m69 -6 c4
-10 0 -12 -15 -8 -15 4 -17 7 -6 13 17 11 15 11 21 -5z m111 -1 c-10 -8 -23
-15 -28 -15 -6 0 -1 7 10 15 10 8 23 15 28 15 6 0 1 -7 -10 -15z m156 11 c0
-2 -7 -7 -16 -10 -8 -3 -12 -2 -9 4 6 10 25 14 25 6z m325 -6 c3 -6 -1 -7 -9
-4 -10 4 -16 1 -16 -7 0 -7 -3 -10 -6 -6 -7 7 4 27 16 27 5 0 12 -4 15 -10z
m331 -2 c5 -7 3 -8 -6 -3 -10 6 -12 4 -6 -11 5 -14 4 -16 -5 -7 -6 6 -8 16 -5
22 9 14 13 14 22 -1z m68 -11 c4 4 4 -1 0 -12 -5 -11 -9 -14 -12 -7 -2 7 -8
10 -13 7 -5 -4 -6 2 -2 11 5 13 3 15 -7 9 -9 -6 -11 -4 -5 5 6 10 11 10 20 -3
7 -9 15 -14 19 -10z m-1383 -10 c-10 -9 -11 -8 -5 6 3 10 9 15 12 12 3 -3 0
-11 -7 -18z m1492 8 c-3 -9 -8 -14 -10 -11 -3 3 -2 9 2 15 9 16 15 13 8 -4z
m121 -7 c-5 -8 -1 -9 12 -4 14 5 16 4 7 -4 -8 -9 -16 -9 -30 -1 -10 6 -13 11
-5 11 7 0 10 5 6 12 -4 7 -3 8 5 4 6 -4 8 -12 5 -18z m-2034 5 c0 -5 -5 -15
-10 -23 -7 -12 -9 -10 -7 8 1 19 17 33 17 15z m455 -14 c-4 -5 -12 -9 -18 -8
-9 0 -8 2 1 6 6 2 9 10 6 15 -4 7 -2 8 5 4 6 -4 9 -12 6 -17z m260 12 c3 -6
-3 -14 -13 -20 -14 -7 -19 -6 -19 4 0 7 7 11 15 7 10 -3 13 -1 8 6 -4 7 -5 12
-2 12 3 0 7 -4 11 -9z m48 -8 c-5 -12 -3 -14 7 -8 9 6 11 4 5 -4 -5 -9 -11 -9
-17 -3 -6 6 -7 15 -4 21 11 17 16 13 9 -6z m190 -13 c3 -11 2 -18 -3 -15 -4 3
-10 14 -13 25 -3 11 -2 18 3 15 4 -3 10 -14 13 -25z m164 24 c-3 -3 -12 -4
-19 -1 -8 3 -5 6 6 6 11 1 17 -2 13 -5z m-1064 -25 c-8 -8 -13 -7 -18 2 -5 8
-4 10 3 5 7 -4 12 -2 12 5 0 7 3 9 7 6 4 -4 2 -12 -4 -18z m52 3 c-3 -3 -11 0
-18 7 -9 10 -8 11 6 5 10 -3 15 -9 12 -12z m516 -5 c-10 -9 -11 -8 -5 6 3 10
9 15 12 12 3 -3 0 -11 -7 -18z m805 3 c5 1 10 -4 12 -12 3 -11 2 -11 -6 0 -5
8 -13 13 -18 12 -5 -1 -10 4 -12 12 -3 11 -2 11 6 0 5 -8 13 -13 18 -12z m570
5 c-1 -8 -5 -17 -8 -21 -5 -4 -4 16 1 34 3 9 9 -1 7 -13z m-2076 -5 c0 -5 -2
-10 -4 -10 -3 0 -8 5 -11 10 -3 6 -1 10 4 10 6 0 11 -4 11 -10z m231 -7 c12
-16 12 -17 -2 -6 -9 7 -19 10 -22 6 -4 -3 -7 -1 -7 5 0 17 16 15 31 -5z m259
7 c8 -5 11 -10 5 -10 -5 0 -17 5 -25 10 -8 5 -10 10 -5 10 6 0 17 -5 25 -10z
m603 -4 c4 -10 1 -13 -8 -9 -8 3 -12 9 -9 14 7 12 11 11 17 -5z m244 8 c-8 -8
-48 -13 -43 -6 2 4 14 8 26 9 12 1 20 0 17 -3z m134 -11 c13 -16 12 -17 -3 -4
-17 13 -22 21 -14 21 2 0 10 -8 17 -17z m253 5 c-3 -5 -10 -6 -15 -3 -5 4 -9
1 -9 -6 0 -7 -3 -10 -6 -6 -9 9 3 24 20 24 8 0 13 -4 10 -9z m80 -11 c4 4 4
-1 0 -12 -5 -11 -9 -14 -12 -7 -2 7 -8 10 -13 7 -5 -4 -6 2 -2 11 5 13 3 15
-7 9 -9 -6 -11 -4 -5 5 6 10 11 10 20 -3 7 -9 15 -14 19 -10z m36 13 c0 -5 -4
-10 -10 -10 -5 0 -10 5 -10 10 0 6 5 10 10 10 6 0 10 -4 10 -10z m125 1 c-9
-8 -36 -10 -30 -2 2 4 11 8 20 8 8 0 13 -3 10 -6z m278 -13 c5 -21 5 -21 -7
-6 -7 10 -17 14 -21 10 -5 -4 -5 -1 -1 6 11 19 23 14 29 -10z m-2342 -11 c-10
-9 -11 -8 -5 6 3 10 9 15 12 12 3 -3 0 -11 -7 -18z m849 19 c0 -2 -7 -7 -16
-10 -8 -3 -12 -2 -9 4 6 10 25 14 25 6z m208 -21 c-3 -3 -9 2 -12 12 -6 14 -5
15 5 6 7 -7 10 -15 7 -18z m192 21 c0 -2 -7 -7 -16 -10 -8 -3 -12 -2 -9 4 6
10 25 14 25 6z m254 -12 c5 -14 4 -15 -9 -4 -17 14 -19 20 -6 20 5 0 12 -7 15
-16z m646 1 c0 -1 -9 -5 -19 -8 -13 -3 -18 -1 -14 9 4 10 33 10 33 -1z m-2090
-4 c0 -5 -8 -15 -17 -22 -16 -12 -17 -12 -6 2 7 9 10 19 6 22 -3 4 -1 7 5 7 7
0 12 -4 12 -9z m513 -17 c-7 -19 -10 -18 -16 5 -3 13 -1 18 9 14 7 -2 10 -11
7 -19z m880 0 c-7 -19 -10 -18 -16 5 -3 13 -1 18 9 14 7 -2 10 -11 7 -19z
m516 4 c-11 -21 -15 -22 -25 -6 -5 7 -3 8 6 3 9 -6 12 -4 8 7 -4 8 0 15 7 15
10 0 11 -5 4 -19z m241 2 c-6 -11 -13 -20 -16 -20 -2 0 0 9 6 20 6 11 13 20
16 20 2 0 0 -9 -6 -20z m-1175 0 c-3 -5 -14 -10 -23 -9 -14 0 -13 2 3 9 27 11
27 11 20 0z m72 -4 c-10 -8 -18 -18 -17 -22 1 -5 -4 -10 -12 -12 -9 -2 -8 0 2
7 8 6 11 11 5 11 -5 0 -1 7 9 15 11 8 22 15 25 15 3 0 -2 -7 -12 -14z m448 2
c-3 -7 -18 -14 -33 -14 l-27 -1 30 13 c17 7 31 13 32 14 1 0 0 -6 -2 -12z
m305 -3 c0 -11 -29 -11 -33 -1 -4 10 1 12 14 9 10 -3 19 -7 19 -8z m240 0 c0
-11 -29 -11 -33 -1 -4 10 1 12 14 9 10 -3 19 -7 19 -8z m-2105 -13 c-3 -3 -11
0 -18 7 -9 10 -8 11 6 5 10 -3 15 -9 12 -12z m320 -2 c3 -5 -4 -6 -15 -3 -11
3 -22 9 -25 13 -3 5 4 6 15 3 11 -3 22 -9 25 -13z m32 -2 c-3 -8 -6 -5 -6 6
-1 11 2 17 5 13 3 -3 4 -12 1 -19z m178 13 c-3 -2 -16 -6 -28 -8 -15 -2 -18 0
-9 5 14 9 45 12 37 3z m630 -9 c-3 -3 -11 0 -18 7 -9 10 -8 11 6 5 10 -3 15
-9 12 -12z m65 8 c0 -5 -2 -10 -4 -10 -3 0 -8 5 -11 10 -3 6 -1 10 4 10 6 0
11 -4 11 -10z m189 -4 c9 -10 8 -15 -3 -19 -11 -4 -13 -1 -9 10 5 12 3 14 -7
8 -9 -5 -11 -4 -6 3 9 15 11 15 25 -2z m405 -2 c3 -8 2 -12 -4 -9 -6 3 -10 10
-10 16 0 14 7 11 14 -7z m551 6 c-3 -5 -12 -10 -18 -10 -7 0 -6 4 3 10 19 12
23 12 15 0z m-2265 -4 c0 -2 -9 -6 -20 -9 -11 -3 -18 -1 -14 4 5 9 34 13 34 5z
m33 -32 c-7 -19 -10 -18 -16 5 -3 13 -1 18 9 14 7 -2 10 -11 7 -19z m130 6
c-3 -12 -8 -19 -11 -16 -5 6 5 36 12 36 2 0 2 -9 -1 -20z m271 8 c-5 -7 -2 -9
7 -6 10 4 15 -1 15 -13 0 -17 -2 -17 -18 -2 -15 14 -16 33 -2 33 3 0 2 -5 -2
-12z m1240 0 c-5 -7 -2 -9 7 -6 10 4 15 -1 15 -12 0 -11 -5 -16 -15 -12 -10 4
-12 1 -6 -8 5 -8 4 -11 -2 -7 -5 3 -9 16 -7 29 3 28 3 28 10 28 3 0 2 -5 -2
-12z m163 -3 c0 -8 -4 -12 -9 -9 -4 3 -8 9 -8 15 0 5 4 9 8 9 5 0 9 -7 9 -15z
m120 8 c-4 -3 -1 -13 6 -22 11 -14 10 -14 -5 -2 -21 15 -23 31 -6 31 6 0 8 -3
5 -7z m120 0 c-4 -3 -1 -13 6 -22 11 -14 10 -14 -5 -2 -21 15 -23 31 -6 31 6
0 8 -3 5 -7z m-2140 -25 c-3 -8 -6 -5 -6 6 -1 11 2 17 5 13 3 -3 4 -12 1 -19z
m1020 7 c0 -8 -4 -15 -9 -15 -10 0 -11 14 -1 23 9 10 10 9 10 -8z m78 3 c-25
-15 -47 -19 -39 -7 3 5 9 7 14 4 5 -3 11 -1 15 5 3 5 12 10 18 10 7 0 3 -6 -8
-12z m299 -1 c-3 -8 -12 -14 -21 -14 -13 0 -13 2 3 14 10 7 19 13 21 13 1 0 0
-6 -3 -13z m26 -12 c-7 -8 -9 -15 -5 -15 4 0 2 -7 -5 -15 -7 -8 -18 -15 -24
-15 -6 0 -4 5 4 10 8 5 15 13 16 17 2 17 17 44 22 39 3 -3 -1 -12 -8 -21z
m860 10 c4 3 10 -2 14 -10 3 -8 0 -17 -6 -21 -7 -5 -8 -2 -3 6 6 9 4 12 -6 8
-10 -4 -15 1 -16 16 0 11 1 15 4 8 3 -6 8 -10 13 -7z m77 -17 c-3 -7 -5 -2 -5
12 0 14 2 19 5 13 2 -7 2 -19 0 -25z m46 11 c5 -3 2 -9 -5 -12 -9 -3 -14 3
-15 15 -1 11 1 16 5 12 4 -5 11 -12 15 -15z m-2380 -9 c3 -11 1 -18 -4 -14 -5
3 -9 12 -9 20 0 20 7 17 13 -6z m677 10 c0 -5 -5 -10 -11 -10 -5 0 -7 5 -4 10
3 6 8 10 11 10 2 0 4 -4 4 -10z m70 0 c8 -5 11 -10 5 -10 -5 0 -17 5 -25 10
-8 5 -10 10 -5 10 6 0 17 -5 25 -10z m190 0 c0 -5 -4 -10 -10 -10 -5 0 -10 5
-10 10 0 6 5 10 10 10 6 0 10 -4 10 -10z m385 0 c3 -6 -1 -7 -9 -4 -18 7 -21
14 -7 14 6 0 13 -4 16 -10z m165 6 c0 -2 -7 -7 -16 -10 -8 -3 -12 -2 -9 4 6
10 25 14 25 6z m610 -21 c0 -2 -7 -1 -17 2 -12 5 -14 3 -8 -8 5 -8 4 -11 0 -6
-5 4 -10 14 -11 22 -2 12 2 12 17 5 10 -6 19 -13 19 -15z m120 0 c0 -2 -7 -1
-17 2 -12 5 -14 3 -8 -8 5 -8 4 -11 0 -6 -5 4 -10 14 -11 22 -2 12 2 12 17 5
10 -6 19 -13 19 -15z m-2105 6 c3 -5 0 -13 -6 -17 -8 -5 -9 -3 -4 6 6 10 4 12
-9 7 -10 -4 -15 -3 -11 3 8 13 22 13 30 1z m1160 -1 c-3 -5 -12 -10 -18 -10
-7 0 -6 4 3 10 19 12 23 12 15 0z m520 1 c3 -5 0 -13 -6 -17 -8 -5 -9 -3 -4 6
6 10 4 12 -9 7 -10 -4 -15 -3 -11 3 8 13 22 13 30 1z m120 0 c3 -5 0 -13 -6
-17 -8 -5 -9 -3 -4 6 6 10 4 12 -9 7 -10 -4 -15 -3 -11 3 8 13 22 13 30 1z
m-1200 -31 c-17 -32 -29 -41 -18 -13 5 12 3 14 -7 8 -9 -5 -11 -4 -6 4 4 6 11
9 16 6 4 -3 10 2 14 10 3 8 8 15 11 15 3 0 -1 -13 -10 -30z m75 11 c7 -15 7
-19 -5 -17 -8 1 -18 6 -22 11 -5 4 -2 5 6 0 11 -6 13 -4 8 8 -9 23 0 21 13 -2z
m173 2 c-5 -12 -3 -14 8 -8 8 5 11 4 6 0 -4 -5 -14 -10 -22 -11 -12 -2 -12 2
-5 17 13 23 22 25 13 2z m60 -14 c-8 -8 -13 -7 -18 2 -6 8 -4 10 5 4 10 -6 12
-4 6 11 -6 15 -5 17 5 7 9 -10 10 -16 2 -24z m54 16 c0 -8 -4 -12 -9 -9 -5 3
-6 10 -3 15 9 13 12 11 12 -6z m160 0 c0 -8 -4 -12 -9 -9 -5 3 -6 10 -3 15 9
13 12 11 12 -6z m76 -11 c-7 -19 -10 -18 -16 5 -3 13 -1 18 9 14 7 -2 10 -11
7 -19z m281 18 c3 -5 -1 -9 -9 -9 -8 0 -12 4 -9 9 3 4 7 8 9 8 2 0 6 -4 9 -8z
m-1540 -16 c-3 -9 -12 -12 -22 -9 -15 6 -9 11 25 22 1 1 0 -5 -3 -13z m2359 1
c4 3 7 1 7 -5 0 -17 -16 -15 -31 6 -12 15 -12 16 2 5 9 -7 19 -10 22 -6z
m-2263 -7 c-18 -12 -30 -13 -30 -2 0 4 10 9 22 9 18 2 20 0 8 -7z m78 -15 c-3
-3 -9 2 -12 12 -6 14 -5 15 5 6 7 -7 10 -15 7 -18z m162 15 c-18 -12 -30 -13
-30 -2 0 4 10 9 22 9 18 2 20 0 8 -7z m266 -2 c5 -7 3 -8 -6 -3 -10 6 -12 4
-7 -7 4 -12 1 -14 -14 -11 -18 5 -19 6 -2 19 22 16 20 16 29 2z m977 -2 c3 -8
0 -17 -7 -19 -10 -4 -12 1 -9 14 6 23 9 24 16 5z m47 4 c0 -5 -2 -10 -4 -10
-3 0 -8 5 -11 10 -3 6 -1 10 4 10 6 0 11 -4 11 -10z m80 0 c0 -5 -4 -10 -10
-10 -5 0 -10 5 -10 10 0 6 5 10 10 10 6 0 10 -4 10 -10z m64 2 c3 -5 -1 -9 -9
-9 -8 0 -15 4 -15 9 0 4 4 8 9 8 6 0 12 -4 15 -8z m59 -11 c3 -13 1 -18 -9
-14 -7 2 -10 11 -7 19 7 19 10 18 16 -5z m230 5 c3 -8 0 -17 -7 -19 -10 -4
-12 1 -9 14 6 23 9 24 16 5z m47 4 c0 -5 -2 -10 -4 -10 -3 0 -8 5 -11 10 -3 6
-1 10 4 10 6 0 11 -4 11 -10z m80 0 c0 -5 -4 -10 -10 -10 -5 0 -10 5 -10 10 0
6 5 10 10 10 6 0 10 -4 10 -10z m64 2 c3 -5 -1 -9 -9 -9 -8 0 -15 4 -15 9 0 4
4 8 9 8 6 0 12 -4 15 -8z m59 -11 c3 -13 1 -18 -9 -14 -7 2 -10 11 -7 19 7 19
10 18 16 -5z m-2462 -33 c-10 -11 -11 -9 -5 6 6 15 4 17 -6 11 -9 -6 -11 -4
-5 4 5 9 10 10 18 2 8 -8 7 -14 -2 -23z m101 25 c-6 -2 -9 -10 -6 -15 4 -7 2
-8 -5 -4 -13 9 -5 26 12 25 9 0 8 -2 -1 -6z m331 -8 c-3 -9 -8 -14 -10 -11 -3
3 -2 9 2 15 9 16 15 13 8 -4z m424 0 c0 -8 -4 -12 -9 -9 -4 3 -8 9 -8 15 0 5
4 9 8 9 5 0 9 -7 9 -15z m483 5 c0 -5 -4 -10 -10 -10 -5 0 -10 5 -10 10 0 6 5
10 10 10 6 0 10 -4 10 -10z m115 1 c3 -5 2 -12 -3 -15 -5 -3 -9 1 -9 9 0 17 3
19 12 6z m235 -6 c7 -9 8 -15 2 -15 -5 0 -12 7 -16 15 -3 8 -4 15 -2 15 2 0 9
-7 16 -15z m124 3 c-5 -8 -2 -9 10 -5 9 4 15 3 11 -2 -3 -5 0 -11 7 -13 7 -3
5 -7 -6 -11 -9 -4 -15 -3 -12 2 3 5 -1 12 -10 15 -13 5 -12 26 2 26 3 0 2 -5
-2 -12z m81 3 c3 -6 -3 -14 -13 -20 -14 -7 -19 -6 -19 4 0 7 7 11 15 7 10 -3
13 -1 8 6 -4 7 -5 12 -2 12 3 0 7 -4 11 -9z m205 -1 c0 -5 -4 -10 -10 -10 -5
0 -10 5 -10 10 0 6 5 10 10 10 6 0 10 -4 10 -10z m194 -2 c-5 -8 -2 -9 10 -5
9 4 15 3 11 -2 -3 -5 0 -11 7 -13 7 -3 5 -7 -6 -11 -9 -4 -15 -3 -12 2 3 5 -1
12 -10 15 -13 5 -12 26 2 26 3 0 2 -5 -2 -12z m81 3 c3 -6 -3 -14 -13 -20 -14
-7 -19 -6 -19 4 0 7 7 11 15 7 10 -3 13 -1 8 6 -4 7 -5 12 -2 12 3 0 7 -4 11
-9z m-2192 -22 c-8 -8 -13 -7 -18 2 -5 8 -4 10 3 5 7 -4 12 -2 12 5 0 7 3 9 7
6 4 -4 2 -12 -4 -18z m1207 6 c-7 -8 -18 -15 -24 -15 -6 0 -2 7 8 15 25 19 32
19 16 0z m37 -7 c-3 -8 -6 -5 -6 6 -1 11 2 17 5 13 3 -3 4 -12 1 -19z m1070
16 c-3 -4 -1 -16 5 -28 6 -11 7 -18 3 -14 -4 4 -13 0 -20 -9 -9 -13 -14 -13
-20 -3 -6 9 -4 11 5 5 10 -6 12 -4 7 9 -5 11 -3 15 5 10 7 -5 9 -2 5 8 -5 15
0 28 11 28 3 0 2 -3 -1 -6z m-2217 -14 c0 -5 -4 -10 -10 -10 -5 0 -10 5 -10
10 0 6 5 10 10 10 6 0 10 -4 10 -10z m230 0 c-8 -5 -19 -10 -25 -10 -5 0 -3 5
5 10 8 5 20 10 25 10 6 0 3 -5 -5 -10z m260 0 c-8 -5 -19 -10 -25 -10 -5 0 -3
5 5 10 8 5 20 10 25 10 6 0 3 -5 -5 -10z m213 -6 c-2 -7 -11 -15 -18 -18 -10
-3 -12 0 -8 11 5 12 3 14 -7 8 -8 -5 -11 -4 -7 1 8 14 46 12 40 -2z m117 8 c0
-5 -7 -9 -15 -9 -8 0 -12 4 -9 9 3 4 9 8 15 8 5 0 9 -4 9 -8z m831 -15 c-10
-9 -11 -8 -5 6 3 10 9 15 12 12 3 -3 0 -11 -7 -18z m111 -9 c-8 -8 -9 -4 -5
13 4 13 8 18 11 10 2 -7 -1 -18 -6 -23z m94 17 c-1 -8 -6 -18 -11 -22 -4 -5
-5 -2 0 6 6 11 4 13 -11 8 -18 -7 -18 -7 0 8 24 18 25 18 22 0z m115 -2 c13
-17 13 -17 -6 -3 -11 8 -22 16 -24 17 -2 2 0 3 6 3 6 0 17 -8 24 -17z m204 -1
c-3 -3 -11 0 -18 7 -9 10 -8 11 6 5 10 -3 15 -9 12 -12z m-2300 -2 c4 -6 -1
-7 -11 -3 -13 5 -15 3 -9 -7 5 -9 4 -11 -4 -6 -6 4 -9 12 -6 17 8 12 22 12 30
-1z m660 0 c-3 -5 -1 -10 6 -10 7 0 10 -3 6 -6 -9 -9 -28 6 -22 17 4 5 8 9 11
9 3 0 2 -4 -1 -10z m519 -12 c-5 -7 -2 -9 9 -5 11 4 14 2 10 -9 -4 -11 -9 -12
-19 -3 -12 10 -11 29 2 29 3 0 2 -5 -2 -12z m243 -3 c0 -8 -4 -12 -9 -9 -5 3
-6 10 -3 15 9 13 12 11 12 -6z m140 0 c5 -4 2 -5 -6 0 -11 6 -13 4 -8 -8 9
-23 0 -21 -13 2 -7 15 -7 19 5 17 8 -1 18 -6 22 -11z m60 9 c-3 -3 -12 -4 -19
-1 -8 3 -5 6 6 6 11 1 17 -2 13 -5z m196 -20 c-7 -19 -10 -18 -16 5 -3 13 -1
18 9 14 7 -2 10 -11 7 -19z m250 5 c-4 -15 -8 -17 -14 -8 -6 11 4 28 18 29 0
0 -1 -9 -4 -21z m199 3 c-4 -11 -1 -13 8 -7 8 5 11 4 6 -3 -4 -6 -12 -9 -20
-6 -16 6 -17 31 0 31 7 0 10 -7 6 -15z m109 -5 c-10 -9 -11 -8 -5 6 3 10 9 15
12 12 3 -3 0 -11 -7 -18z m-2358 -2 c-3 -9 -8 -14 -10 -11 -3 3 -2 9 2 15 9
16 15 13 8 -4z m242 -15 c-3 -4 0 -11 5 -13 7 -4 6 -5 0 -3 -7 1 -10 5 -8 8 2
4 -6 14 -17 23 -19 16 -19 16 3 5 12 -6 20 -15 17 -20z m-435 10 c0 -5 -2 -10
-4 -10 -3 0 -8 5 -11 10 -3 6 -1 10 4 10 6 0 11 -4 11 -10z m120 0 c0 -5 -5
-10 -11 -10 -5 0 -7 5 -4 10 3 6 8 10 11 10 2 0 4 -4 4 -10z m120 -5 c0 -1 -9
-5 -19 -8 -13 -3 -18 -1 -14 9 4 10 33 10 33 -1z m441 2 c-6 -8 -8 -17 -4 -20
3 -4 1 -7 -5 -7 -15 0 -15 13 0 28 16 16 23 15 9 -1z m69 3 c12 -7 10 -9 -8
-7 -12 0 -22 5 -22 9 0 11 12 10 30 -2z m143 -4 c4 -10 0 -12 -15 -8 -15 4
-17 7 -6 13 17 11 15 11 21 -5z m144 8 c-3 -3 -11 -6 -19 -8 -7 -1 -20 -6 -28
-11 -12 -7 -13 -6 -3 6 6 8 22 15 34 16 11 1 19 0 16 -3z m1018 -12 c-3 -3
-11 0 -18 7 -9 10 -8 11 6 5 10 -3 15 -9 12 -12z m69 10 c2 -4 -4 -8 -14 -8
-10 0 -16 4 -14 8 3 4 9 8 14 8 5 0 11 -4 14 -8z m60 -4 c-3 -4 -9 -8 -15 -8
-5 0 -9 4 -9 8 0 5 7 9 15 9 8 0 12 -4 9 -9z m-2030 -20 c-5 -7 -2 -9 7 -6 10
4 15 -1 15 -12 0 -11 -5 -16 -15 -12 -10 4 -12 1 -6 -8 5 -8 4 -11 -2 -7 -5 3
-9 16 -7 29 3 28 3 28 10 28 3 0 2 -5 -2 -12z m114 -19 c-3 -8 -7 -3 -11 10
-4 17 -3 21 5 13 5 -5 8 -16 6 -23z m575 14 c-5 -12 -3 -14 8 -8 8 5 11 5 6
-1 -5 -5 -12 -9 -15 -8 -4 1 -13 -6 -20 -15 -11 -14 -11 -14 -5 3 5 14 3 17
-7 11 -9 -5 -11 -4 -6 4 4 6 11 9 16 6 4 -3 10 2 14 10 3 8 8 15 10 15 3 0 2
-7 -1 -17z m68 -6 c-10 -9 -11 -8 -5 6 3 10 9 15 12 12 3 -3 0 -11 -7 -18z
m326 11 c-2 -7 0 -22 5 -33 8 -18 8 -19 -5 -3 -8 10 -17 14 -22 10 -4 -4 -1 3
6 16 15 24 23 29 16 10z m323 7 c0 -7 -30 -13 -34 -7 -3 4 4 9 15 9 10 1 19 0
19 -2z m80 -5 c0 -5 -4 -10 -10 -10 -5 0 -10 5 -10 10 0 6 5 10 10 10 6 0 10
-4 10 -10z m120 1 c0 -6 -4 -12 -8 -15 -5 -3 -9 1 -9 9 0 8 4 15 9 15 4 0 8
-4 8 -9z m804 0 c4 -5 -3 -7 -14 -4 -23 6 -26 13 -6 13 8 0 17 -4 20 -9z
m-1850 -14 c-3 -8 -12 -14 -21 -14 -13 0 -13 2 3 14 10 7 19 13 21 13 1 0 0
-6 -3 -13z m331 -5 c-3 -3 -11 0 -18 7 -9 10 -8 11 6 5 10 -3 15 -9 12 -12z
m929 4 c-5 -14 -40 -14 -53 0 -3 4 1 5 10 2 9 -4 22 -2 30 3 19 12 19 11 13
-5z m22 -18 c-9 -12 -16 -19 -16 -15 0 11 24 47 28 42 2 -2 -3 -14 -12 -27z
m102 21 c-2 -6 -7 -10 -12 -9 -4 1 -14 -7 -22 -17 -14 -17 -14 -16 -4 5 6 12
15 20 21 17 5 -4 9 -1 9 4 0 6 3 11 6 11 3 0 4 -5 2 -11z m42 -4 c5 3 14 -5
20 -17 9 -20 9 -21 -2 -7 -7 9 -17 16 -23 17 -5 0 -10 5 -12 12 -1 6 0 7 4 0
2 -5 9 -8 13 -5z m90 -10 c14 -19 14 -19 -2 -6 -10 7 -18 18 -18 24 0 6 1 8 3
6 1 -2 9 -13 17 -24z m60 13 c8 2 12 2 9 -2 -13 -14 -48 -14 -53 0 -4 11 -1
12 12 6 9 -5 24 -7 32 -4z m-2310 -8 c0 -5 -4 -10 -10 -10 -5 0 -10 5 -10 10
0 6 5 10 10 10 6 0 10 -4 10 -10z m73 -5 c4 -8 1 -17 -5 -21 -7 -5 -8 -2 -3 6
6 10 4 12 -10 6 -15 -5 -16 -4 -5 9 15 19 16 19 23 0z m193 -5 c0 -12 -4 -16
-9 -11 -5 5 -6 14 -3 20 10 15 12 14 12 -9z m134 10 c0 -5 -5 -10 -11 -10 -5
0 -7 5 -4 10 3 6 8 10 11 10 2 0 4 -4 4 -10z m253 -5 c4 -8 1 -17 -5 -21 -7
-5 -8 -2 -3 6 6 10 4 12 -10 6 -15 -5 -16 -4 -5 9 15 19 16 19 23 0z m341 3
c-4 -5 -8 -7 -12 -4 -3 3 -11 -2 -19 -12 -13 -15 -13 -15 -4 4 5 11 17 21 25
21 8 0 13 -4 10 -9z m548 1 c2 -2 1 -3 -1 -2 -2 2 -9 -5 -16 -14 -9 -13 -14
-13 -20 -3 -6 9 -4 11 5 5 10 -6 12 -4 7 7 -3 10 -1 15 8 14 8 -1 16 -4 17 -7z
m45 -11 c-3 -8 -6 -5 -6 6 -1 11 2 17 5 13 3 -3 4 -12 1 -19z m148 4 c-3 -3
-11 0 -18 7 -9 10 -8 11 6 5 10 -3 15 -9 12 -12z m116 1 c13 -17 13 -17 -6 -3
-11 8 -22 16 -24 17 -2 2 0 3 6 3 6 0 17 -8 24 -17z m589 5 c0 -6 -3 -8 -7 -5
-3 4 -13 1 -22 -6 -14 -11 -14 -10 -2 6 15 20 31 22 31 5z m60 8 c0 -3 -4 -8
-10 -11 -5 -3 -10 -1 -10 4 0 6 5 11 10 11 6 0 10 -2 10 -4z m38 -16 c-7 -10
-14 -17 -17 -15 -4 4 18 35 25 35 2 0 -1 -9 -8 -20z m-1765 -5 c-3 -9 -8 -14
-10 -11 -3 3 -2 9 2 15 9 16 15 13 8 -4z m1122 5 c-3 -5 -12 -10 -18 -10 -7 0
-6 4 3 10 19 12 23 12 15 0z m490 -8 c-3 -3 -11 0 -18 7 -9 10 -8 11 6 5 10
-3 15 -9 12 -12z m216 -5 c-10 -9 -11 -8 -5 6 3 10 9 15 12 12 3 -3 0 -11 -7
-18z m-2630 -9 c6 -13 8 -20 4 -16 -5 4 -15 2 -24 -5 -14 -10 -14 -10 -3 5 8
9 11 22 7 28 -3 5 -4 10 -1 10 3 0 11 -10 17 -22z m1344 4 c-3 -3 -11 0 -18 7
-9 10 -8 11 6 5 10 -3 15 -9 12 -12z m398 -8 c-4 -11 -9 -12 -19 -3 -19 15
-18 20 3 12 12 -5 14 -3 8 7 -5 8 -4 11 3 6 6 -4 9 -13 5 -22z m110 9 c-5 -12
-3 -14 7 -8 9 5 11 4 6 -3 -5 -9 -12 -8 -26 1 -20 12 -18 15 17 26 1 1 -1 -6
-4 -16z m120 -4 c-4 -15 -8 -17 -14 -8 -6 11 4 28 18 29 0 0 -1 -9 -4 -21z
m390 -5 c-7 -19 -10 -18 -16 5 -3 13 -1 18 9 14 7 -2 10 -11 7 -19z m-1715 -9
c-3 -3 -9 2 -12 12 -6 14 -5 15 5 6 7 -7 10 -15 7 -18z m75 10 c-3 -9 -8 -14
-10 -11 -3 3 -2 9 2 15 9 16 15 13 8 -4z m127 0 c0 -11 -29 -11 -33 -1 -4 10
1 12 14 9 10 -3 19 -7 19 -8z m375 5 c-3 -5 -14 -10 -23 -9 -14 0 -13 2 3 9
27 11 27 11 20 0z m882 -16 c-5 -5 -57 13 -57 20 0 3 14 0 31 -6 16 -6 28 -12
26 -14z m158 17 c-6 -5 -21 -11 -35 -15 -21 -5 -20 -3 5 9 35 17 42 18 30 6z
m345 -6 c0 -11 -29 -11 -33 -1 -4 10 1 12 14 9 10 -3 19 -7 19 -8z m-2440 -5
c0 -5 -2 -10 -4 -10 -3 0 -8 5 -11 10 -3 6 -1 10 4 10 6 0 11 -4 11 -10z m84
2 c3 -5 -1 -9 -9 -9 -8 0 -15 4 -15 9 0 4 4 8 9 8 6 0 12 -4 15 -8z m1296 -7
c0 -2 -9 -3 -19 -2 -11 0 -18 5 -15 9 4 6 34 0 34 -7z m65 6 c-9 -8 -36 -10
-30 -2 2 4 11 8 20 8 8 0 13 -3 10 -6z m69 -6 c11 -8 16 -15 10 -15 -5 0 -18
7 -28 15 -11 8 -16 15 -10 15 5 0 18 -7 28 -15z m126 0 c0 -1 -9 -5 -19 -8
-13 -3 -18 -1 -14 9 4 10 33 10 33 -1z m364 7 c2 -4 -4 -8 -14 -8 -10 0 -16 4
-14 8 3 4 9 8 14 8 5 0 11 -4 14 -8z m-1549 -12 c3 -6 -1 -7 -9 -4 -18 7 -21
14 -7 14 6 0 13 -4 16 -10z m1380 0 c-3 -5 0 -10 7 -10 8 0 5 -5 -5 -11 -14
-8 -22 -8 -30 1 -9 8 -8 10 6 4 10 -3 17 -3 16 2 -2 14 0 24 7 24 3 0 2 -4 -1
-10z m475 6 c0 -2 -7 -7 -16 -10 -8 -3 -12 -2 -9 4 6 10 25 14 25 6z m64 -5
c4 -5 -3 -7 -14 -4 -23 6 -26 13 -6 13 8 0 17 -4 20 -9z m-2340 -13 c-5 -8 -2
-9 9 -5 23 9 21 0 -2 -13 -16 -8 -19 -7 -16 8 5 23 4 22 11 22 3 0 2 -5 -2
-12z m473 -13 c-9 -7 -13 -16 -9 -20 4 -4 -3 -3 -14 3 -12 6 -25 8 -29 4 -5
-4 -5 -2 -1 5 4 7 14 9 23 6 11 -4 14 -3 9 5 -5 8 -1 10 10 5 13 -5 15 -3 9 7
-6 9 -4 11 5 5 10 -6 10 -11 -3 -20z m976 5 c-3 -11 -10 -23 -16 -27 -5 -3 -8
-2 -5 3 3 5 8 17 11 27 9 24 16 22 10 -3z m180 -11 c-8 -8 -13 -7 -18 2 -6 8
-4 10 5 4 10 -6 12 -4 6 11 -6 15 -5 17 5 7 9 -10 10 -16 2 -24z m57 24 c0 -5
-5 -15 -10 -23 -7 -12 -9 -10 -7 8 1 19 17 33 17 15z m434 -5 c-5 -8 -1 -9 12
-4 14 5 16 4 7 -5 -13 -13 -37 -3 -28 12 4 5 8 9 11 9 3 0 2 -5 -2 -12z m126
-23 c0 -5 -5 -3 -10 5 -5 8 -10 20 -10 25 0 6 5 3 10 -5 5 -8 10 -19 10 -25z
m43 18 c-5 -12 -3 -14 7 -8 9 5 11 4 6 -4 -6 -9 -11 -9 -22 0 -12 10 -12 14
-2 20 18 12 18 11 11 -8z m-2236 -15 c-3 -8 -6 -5 -6 6 -1 11 2 17 5 13 3 -3
4 -12 1 -19z m186 7 c-3 -9 -8 -14 -10 -11 -3 3 -2 9 2 15 9 16 15 13 8 -4z
m1037 0 c-14 -17 -30 -20 -30 -4 0 5 4 8 9 4 5 -3 12 -1 16 5 3 5 9 10 12 10
3 0 0 -7 -7 -15z m113 1 c3 -8 0 -17 -7 -19 -10 -4 -12 1 -9 14 6 23 9 24 16
5z m350 -7 c-8 -8 -13 -7 -18 2 -5 8 -4 10 3 5 7 -4 12 -2 12 5 0 7 3 9 7 6 4
-4 2 -12 -4 -18z m103 -5 c1 -9 0 -13 -4 -10 -3 4 -7 14 -8 22 -1 9 0 13 4 10
3 -4 7 -14 8 -22z m125 16 c9 13 10 13 6 0 -2 -8 -10 -15 -17 -15 -7 0 -15 7
-17 15 -4 13 -3 13 6 0 10 -13 12 -13 22 0z m220 -5 c5 4 6 -2 2 -11 -4 -11
-8 -13 -11 -6 -2 7 -8 10 -13 7 -5 -4 -6 2 -2 11 4 11 8 13 11 6 2 -7 8 -10
13 -7z m-2297 -18 c4 4 4 -1 0 -11 -6 -15 -4 -17 6 -11 9 6 11 4 5 -5 -6 -10
-11 -10 -20 3 -7 9 -15 14 -19 10 -4 -4 -4 1 0 11 6 15 4 17 -6 11 -9 -6 -11
-4 -5 5 6 10 11 10 20 -3 7 -9 15 -14 19 -10z m46 13 c-8 -5 -19 -10 -25 -10
-5 0 -3 5 5 10 8 5 20 10 25 10 6 0 3 -5 -5 -10z m720 0 c-8 -5 -19 -10 -25
-10 -5 0 -3 5 5 10 8 5 20 10 25 10 6 0 3 -5 -5 -10z m90 -2 c0 -6 -3 -8 -7
-5 -3 4 -13 1 -22 -6 -14 -11 -14 -10 -2 6 15 20 31 22 31 5z m240 2 c0 -5 -4
-10 -10 -10 -5 0 -10 5 -10 10 0 6 5 10 10 10 6 0 10 -4 10 -10z m51 -7 c12
-16 12 -17 -2 -6 -9 7 -19 10 -22 6 -4 -3 -7 -1 -7 5 0 17 16 15 31 -5z m-513
-7 c-7 -8 -15 -12 -17 -11 -5 6 10 25 20 25 5 0 4 -6 -3 -14z m799 -1 c0 -8
-4 -12 -9 -9 -5 3 -6 10 -3 15 9 13 12 11 12 -6z m196 0 c-3 -9 -8 -14 -10
-11 -3 3 -2 9 2 15 9 16 15 13 8 -4z m363 6 c-4 -5 -1 -11 6 -13 7 -3 5 -7 -6
-11 -10 -4 -15 -3 -11 3 3 6 0 10 -7 10 -9 0 -9 3 2 10 19 12 23 12 16 1z
m166 -9 c-7 -2 -10 -8 -7 -13 4 -5 -2 -6 -11 -2 -11 4 -13 8 -6 11 7 2 10 8 7
13 -4 5 2 6 11 2 11 -4 13 -8 6 -11z m358 -3 c0 -5 -4 -9 -8 -9 -5 0 -9 7 -9
15 0 8 4 12 9 9 4 -3 8 -9 8 -15z m-2440 -4 c0 -1 -6 -8 -14 -14 -11 -9 -16
-9 -22 0 -5 8 -3 9 6 4 10 -6 12 -4 7 8 -4 11 -2 14 9 10 7 -3 14 -6 14 -8z
m229 1 c9 -10 8 -15 -3 -19 -9 -4 -18 -1 -22 5 -5 7 -2 8 6 3 10 -6 12 -4 7 8
-8 21 -3 22 12 3z m726 4 c-3 -5 -12 -10 -18 -10 -7 0 -6 4 3 10 19 12 23 12
15 0z m999 -2 c-5 -7 -2 -9 9 -5 11 4 14 2 10 -9 -4 -11 -9 -12 -19 -3 -12 10
-11 29 2 29 3 0 2 -5 -2 -12z m-2140 -12 c-3 -9 -12 -12 -22 -9 -15 6 -9 11
25 22 1 1 0 -5 -3 -13z m66 -1 c0 -11 -29 -11 -33 -1 -4 10 1 12 14 9 10 -3
19 -7 19 -8z m296 -9 c1 -9 -5 -12 -20 -8 -18 5 -18 7 -3 10 10 2 14 8 11 15
-4 7 -3 8 1 4 5 -4 10 -14 11 -21z m1339 -6 c-3 -4 0 -11 5 -13 7 -4 6 -5 0
-3 -7 1 -10 5 -8 8 2 4 -6 14 -17 23 -19 16 -19 16 3 5 12 -6 20 -15 17 -20z
m98 18 c-2 -5 -13 -8 -23 -8 -10 0 -21 3 -23 8 -3 4 8 7 23 7 15 0 26 -3 23
-7z m-1213 -2 c0 -2 -7 -7 -16 -10 -8 -3 -12 -2 -9 4 6 10 25 14 25 6z m113
-10 c3 -8 0 -17 -7 -19 -10 -4 -12 1 -9 14 6 23 9 24 16 5z m144 -1 c5 -4 2
-5 -6 0 -11 6 -13 4 -8 -8 9 -23 0 -21 -13 2 -7 15 -7 19 5 17 8 -1 18 -6 22
-11z m52 -7 c-12 -23 -21 -24 -12 -1 5 12 3 14 -7 8 -8 -5 -11 -4 -7 2 3 5 13
10 21 10 11 0 13 -5 5 -19z m286 12 c3 -5 1 -10 -4 -10 -6 0 -11 5 -11 10 0 6
2 10 4 10 3 0 8 -4 11 -10z m275 0 c12 -7 10 -9 -8 -7 -12 0 -22 5 -22 9 0 11
12 10 30 -2z m133 -9 c3 -13 1 -18 -9 -14 -7 2 -10 11 -7 19 7 19 10 18 16 -5z
m452 -1 c3 -5 -4 -6 -15 -3 -11 3 -22 9 -25 13 -3 5 4 6 15 3 11 -3 22 -9 25
-13z m174 6 c9 -11 9 -16 0 -22 -8 -5 -9 -3 -4 6 6 10 4 12 -8 7 -11 -4 -14
-2 -10 9 6 17 8 17 22 0z m151 10 c0 -2 -13 -9 -30 -15 -35 -12 -41 -5 -7 9
25 10 37 12 37 6z m237 -11 c5 -4 2 -5 -6 0 -11 6 -13 4 -8 -8 9 -23 0 -21
-13 2 -7 15 -7 19 5 17 8 -1 18 -6 22 -11z m-2382 -5 c-3 -5 -12 -10 -18 -10
-7 0 -6 4 3 10 19 12 23 12 15 0z m-79 -15 c-3 -23 -12 -26 -13 -5 -1 11 2 20
7 20 4 0 7 -7 6 -15z m992 -10 c-3 -3 -9 2 -12 12 -6 14 -5 15 5 6 7 -7 10
-15 7 -18z m286 1 c-6 -16 -31 -17 -31 0 0 7 7 10 15 6 11 -4 13 -1 7 8 -5 8
-4 11 3 6 6 -4 9 -12 6 -20z m101 14 c-3 -5 2 -10 11 -10 10 0 15 -3 11 -6
-10 -10 -39 5 -32 16 3 5 8 10 11 10 3 0 2 -4 -1 -10z m468 -7 c-4 -10 -2 -14
5 -9 6 3 13 2 16 -3 4 -5 -1 -8 -9 -7 -20 3 -28 13 -20 25 10 17 15 13 8 -6z
m73 -13 c0 -16 -4 -30 -8 -30 -4 0 -6 10 -4 23 3 12 5 25 5 30 1 4 3 7 5 7 2
0 3 -13 2 -30z m244 -2 c0 -19 -16 -5 -17 14 -2 18 0 20 7 8 5 -8 10 -18 10
-22z m68 1 c-3 -8 -7 -3 -11 10 -4 17 -3 21 5 13 5 -5 8 -16 6 -23z m-1714 -9
c-6 -6 -10 -3 -10 10 0 13 4 16 10 10 7 -7 7 -13 0 -20z m76 15 c-14 -17 -30
-20 -30 -4 0 5 4 8 9 4 5 -3 12 -1 16 5 3 5 9 10 12 10 3 0 0 -7 -7 -15z m884
0 c-10 -8 -23 -15 -28 -15 -6 0 -1 7 10 15 10 8 23 15 28 15 6 0 1 -7 -10 -15z
m46 -6 c0 -5 -4 -9 -8 -9 -5 0 -9 7 -9 15 0 8 4 12 9 9 4 -3 8 -9 8 -15z m76
-5 c1 -9 0 -13 -4 -10 -3 4 -7 14 -8 22 -1 9 0 13 4 10 3 -4 7 -14 8 -22z m79
12 c-11 -8 -23 -12 -27 -10 -4 2 -9 0 -13 -6 -3 -5 -11 -10 -18 -10 -6 0 -2 6
8 14 11 8 23 12 27 10 4 -2 9 0 13 6 3 5 11 10 18 10 6 0 2 -6 -8 -14z m-1798
-18 c2 -18 0 -20 -7 -8 -12 18 -13 30 -2 30 4 0 9 -10 9 -22z m68 13 c-9 -8
-36 -10 -30 -2 2 4 11 8 20 8 8 0 13 -3 10 -6z m515 -1 c0 -5 -4 -10 -10 -10
-5 0 -10 5 -10 10 0 6 5 10 10 10 6 0 10 -4 10 -10z m731 -17 c-12 -20 -14
-14 -5 12 4 9 9 14 11 11 3 -2 0 -13 -6 -23z m604 9 c-3 -3 -11 0 -18 7 -9 10
-8 11 6 5 10 -3 15 -9 12 -12z m185 6 c0 -4 -4 -8 -9 -8 -6 0 -12 4 -15 8 -3
5 1 9 9 9 8 0 15 -4 15 -9z m64 4 c3 -5 -1 -9 -9 -9 -8 0 -15 4 -15 9 0 4 4 8
9 8 6 0 12 -4 15 -8z m60 -4 c-3 -5 -10 -5 -16 -2 -8 5 -9 1 -4 -12 5 -14 4
-16 -5 -7 -14 14 -6 30 15 30 8 0 13 -4 10 -9z m174 -8 c-7 -10 -14 -17 -17
-15 -4 4 18 35 25 35 2 0 -1 -9 -8 -20z m142 8 c0 -6 -3 -8 -7 -5 -3 4 -13 1
-22 -6 -14 -11 -14 -10 -2 6 15 20 31 22 31 5z m57 -3 c0 -8 -4 -12 -9 -9 -4
3 -8 9 -8 15 0 5 4 9 8 9 5 0 9 -7 9 -15z m-2673 -12 c4 -10 4 -14 0 -10 -4 4
-13 -1 -21 -11 -11 -15 -12 -13 -2 11 14 32 15 32 23 10z m231 8 c3 -5 0 -13
-6 -17 -8 -5 -9 -3 -4 6 6 10 4 12 -9 7 -10 -4 -15 -3 -11 3 8 13 22 13 30 1z
m180 0 c3 -5 0 -13 -6 -17 -8 -5 -9 -3 -4 6 6 10 4 12 -9 7 -10 -4 -15 -3 -11
3 8 13 22 13 30 1z m206 -14 c-10 -9 -11 -8 -5 6 3 10 9 15 12 12 3 -3 0 -11
-7 -18z m254 13 c-3 -5 -12 -10 -18 -10 -7 0 -6 4 3 10 19 12 23 12 15 0z
m1049 -6 c5 -14 4 -15 -9 -4 -17 14 -19 20 -6 20 5 0 12 -7 15 -16z m646 1 c0
-1 -9 -5 -19 -8 -13 -3 -18 -1 -14 9 4 10 33 10 33 -1z m-1657 -12 c-3 -7 -6
-13 -8 -13 -2 0 -5 6 -8 13 -3 8 1 14 8 14 7 0 11 -6 8 -14z m501 5 c-5 -8 -1
-9 12 -4 14 5 16 4 7 -5 -13 -13 -37 -3 -28 12 4 5 8 9 11 9 3 0 2 -5 -2 -12z
m269 -5 c-5 -12 -3 -14 8 -8 8 5 11 4 6 0 -4 -5 -14 -10 -22 -11 -12 -2 -12 2
-5 17 13 23 22 25 13 2z m79 -2 c-4 -10 -1 -12 9 -6 8 4 11 4 6 0 -11 -12 -47
-13 -54 -2 -4 6 -1 7 7 2 9 -6 12 -4 8 6 -4 10 1 15 12 15 11 0 16 -5 12 -15z
m121 -2 c-4 -15 -8 -17 -14 -8 -6 11 4 28 18 29 0 0 -1 -9 -4 -21z m-1829 -3
c-3 -9 -12 -12 -22 -9 -15 6 -9 11 25 22 1 1 0 -5 -3 -13z m160 -15 c-2 -3
-12 3 -22 13 -16 17 -16 18 5 5 12 -7 20 -15 17 -18z m386 14 c0 -11 -29 -11
-33 -1 -4 10 1 12 14 9 10 -3 19 -7 19 -8z m1374 1 c-3 -9 -12 -12 -22 -9 -15
6 -9 11 25 22 1 1 0 -5 -3 -13z m546 -1 c0 -11 -29 -11 -33 -1 -4 10 1 12 14
9 10 -3 19 -7 19 -8z m-2344 -7 c5 -7 3 -8 -6 -3 -10 6 -12 4 -6 -11 4 -10 4
-15 0 -11 -4 4 -12 -1 -19 -10 -9 -13 -14 -13 -20 -3 -6 9 -4 11 5 5 10 -6 12
-4 7 9 -4 9 -3 15 2 12 5 -3 11 1 15 9 7 18 12 19 22 3z m219 -6 c-3 -3 -11 0
-18 7 -9 10 -8 11 6 5 10 -3 15 -9 12 -12z m1635 3 c11 -13 10 -14 -5 -9 -14
6 -16 4 -10 -6 5 -8 4 -11 -3 -6 -6 4 -9 13 -5 21 7 19 8 19 23 0z m114 7 c3
-5 -1 -9 -9 -9 -8 0 -12 4 -9 9 3 4 7 8 9 8 2 0 6 -4 9 -8z m192 -4 c5 -7 3
-8 -6 -3 -10 6 -12 4 -7 -9 4 -9 3 -15 -2 -11 -5 3 -11 0 -13 -7 -3 -7 -7 -5
-11 6 -4 9 -3 15 2 12 5 -3 11 1 15 9 7 18 12 19 22 3z m68 -11 c4 4 4 -1 0
-11 -6 -15 -4 -17 6 -11 9 6 11 4 5 -5 -6 -10 -11 -10 -20 3 -7 9 -15 14 -19
10 -4 -4 -4 1 0 11 6 15 4 17 -6 11 -9 -6 -11 -4 -5 5 6 10 11 10 20 -3 7 -9
15 -14 19 -10z m296 13 c0 -5 -2 -10 -4 -10 -3 0 -8 5 -11 10 -3 6 -1 10 4 10
6 0 11 -4 11 -10z m-2064 -15 c-1 -8 -6 -18 -11 -22 -4 -4 -5 -2 -1 5 4 7 2
12 -6 12 -9 0 -9 3 2 10 19 12 19 13 16 -5z m178 6 c4 -5 -3 -7 -14 -4 -23 6
-26 13 -6 13 8 0 17 -4 20 -9z m541 -1 c-3 -5 -1 -10 6 -10 7 0 10 -3 6 -6 -9
-9 -28 6 -22 17 4 5 8 9 11 9 3 0 2 -4 -1 -10z m721 -5 c-1 -8 -6 -18 -11 -22
-4 -4 -5 -2 -1 5 4 7 2 12 -6 12 -9 0 -9 3 2 10 19 12 19 13 16 -5z m577 8 c3
-5 -8 -8 -23 -8 -15 0 -26 3 -23 8 2 4 13 7 23 7 10 0 21 -3 23 -7z m-2290
-20 c-3 -7 -6 -13 -8 -13 -2 0 -5 6 -8 13 -3 8 1 14 8 14 7 0 11 -6 8 -14z
m194 2 c0 -8 -4 -12 -9 -9 -4 3 -8 9 -8 15 0 5 4 9 8 9 5 0 9 -7 9 -15z m273
-10 c-7 -8 -16 -15 -21 -15 -5 0 -1 8 9 18 20 22 31 19 12 -3z m207 6 c0 -11
-5 -18 -9 -15 -4 3 -5 11 -1 19 7 21 12 19 10 -4z m763 12 c0 -5 -5 -15 -10
-23 -7 -12 -9 -10 -7 8 1 19 17 33 17 15z m194 -9 c3 -8 2 -12 -4 -9 -6 3 -10
10 -10 16 0 14 7 11 14 -7z m600 0 c3 -8 2 -12 -4 -9 -6 3 -10 10 -10 16 0 14
7 11 14 -7z m-2599 -6 c4 4 2 -3 -4 -15 -14 -27 -23 -31 -14 -6 4 10 2 14 -4
10 -5 -3 -10 0 -10 8 0 10 4 12 12 5 7 -5 15 -6 20 -2z m742 5 c-4 -3 1 -11
10 -18 13 -9 13 -14 3 -20 -9 -6 -11 -4 -5 5 6 10 4 12 -9 7 -10 -4 -15 -3
-11 3 3 6 0 10 -7 10 -9 0 -9 3 2 10 17 11 26 13 17 3z m527 -9 c3 -8 2 -12
-4 -9 -6 3 -10 10 -10 16 0 14 7 11 14 -7z m351 6 c-3 -5 -12 -10 -18 -10 -7
0 -6 4 3 10 19 12 23 12 15 0z m238 -11 c-8 -8 -13 -7 -18 2 -5 8 -4 10 3 5 7
-4 12 -2 12 5 0 7 3 9 7 6 4 -4 2 -12 -4 -18z m52 3 c-3 -3 -11 0 -18 7 -9 10
-8 11 6 5 10 -3 15 -9 12 -12z m-1208 -6 c0 -8 -6 -12 -15 -8 -11 4 -13 1 -7
-8 6 -9 4 -11 -5 -5 -10 6 -9 11 5 22 23 16 22 16 22 -1z m619 -1 c-1 -8 -6
-18 -11 -22 -4 -5 -5 -2 0 6 6 11 4 13 -11 8 -18 -7 -18 -7 0 8 24 18 25 18
22 0z m139 -5 c3 -5 -4 -6 -15 -3 -11 3 -22 9 -25 13 -3 5 4 6 15 3 11 -3 22
-9 25 -13z m51 8 c4 -7 3 -8 -4 -4 -7 4 -12 2 -12 -5 0 -7 -3 -10 -6 -6 -6 5
3 27 11 27 2 0 7 -5 11 -12z m54 2 c0 -5 -5 -10 -11 -10 -5 0 -7 5 -4 10 3 6
8 10 11 10 2 0 4 -4 4 -10z m160 0 c0 -5 -2 -10 -4 -10 -3 0 -8 5 -11 10 -3 6
-1 10 4 10 6 0 11 -4 11 -10z m640 1 c0 -6 -4 -12 -8 -15 -5 -3 -9 1 -9 9 0 8
4 15 9 15 4 0 8 -4 8 -9z m320 -1 c0 -5 -2 -10 -4 -10 -3 0 -8 5 -11 10 -3 6
-1 10 4 10 6 0 11 -4 11 -10z m-2643 -15 c0 -8 -4 -15 -9 -15 -10 0 -11 14 -1
23 9 10 10 9 10 -8z m563 -6 c0 -5 -4 -9 -8 -9 -5 0 -9 7 -9 15 0 8 4 12 9 9
4 -3 8 -9 8 -15z m1920 0 c0 -5 -4 -9 -8 -9 -5 0 -9 7 -9 15 0 8 4 12 9 9 4
-3 8 -9 8 -15z m120 0 c0 -5 -4 -9 -8 -9 -5 0 -9 7 -9 15 0 8 4 12 9 9 4 -3 8
-9 8 -15z m-1430 -4 c0 -2 -6 -5 -13 -8 -8 -3 -14 1 -14 8 0 7 6 11 14 8 7 -3
13 -6 13 -8z m193 -6 c-4 -15 -8 -17 -14 -8 -6 11 4 28 18 29 0 0 -1 -9 -4
-21z m924 15 c-3 -3 -12 -4 -19 -1 -8 3 -5 6 6 6 11 1 17 -2 13 -5z m-1073
-18 c-3 -9 -12 -12 -22 -9 -15 6 -9 11 25 22 1 1 0 -5 -3 -13z m1026 -1 c0
-11 -29 -11 -33 -1 -4 10 1 12 14 9 10 -3 19 -7 19 -8z m330 -7 c0 -6 -6 -5
-15 2 -8 7 -15 14 -15 16 0 2 7 1 15 -2 8 -4 15 -11 15 -16z m-2541 -10 c-12
-23 -21 -24 -12 -1 5 12 3 14 -7 8 -8 -5 -11 -4 -7 2 3 5 13 10 21 10 11 0 13
-5 5 -19z m230 -1 c0 -9 -2 -8 -6 1 -2 6 -10 9 -15 6 -7 -4 -8 -2 -4 5 9 13
26 5 25 -12z m278 8 c5 -4 2 -5 -6 0 -11 6 -13 4 -8 -8 9 -23 0 -21 -13 2 -7
15 -7 19 5 17 8 -1 18 -6 22 -11z m83 4 c0 -4 -9 -7 -19 -6 -11 0 -18 4 -16 7
6 9 35 8 35 -1z m60 1 c0 -5 -4 -10 -10 -10 -5 0 -10 5 -10 10 0 6 5 10 10 10
6 0 10 -4 10 -10z m237 -5 c0 -8 -4 -12 -9 -9 -5 3 -6 10 -3 15 9 13 12 11 12
-6z m314 -8 c-10 -9 -11 -8 -5 6 3 10 9 15 12 12 3 -3 0 -11 -7 -18z m73 11
c-3 -4 -9 -8 -15 -8 -5 0 -9 4 -9 8 0 5 7 9 15 9 8 0 12 -4 9 -9z m129 -2 c3
-8 0 -17 -7 -19 -10 -4 -12 1 -9 14 6 23 9 24 16 5z m63 2 c5 -7 3 -8 -6 -3
-10 6 -12 4 -6 -11 5 -14 4 -16 -5 -7 -6 6 -8 16 -5 22 9 14 13 14 22 -1z m53
-2 c9 -10 8 -15 -3 -19 -11 -4 -13 -1 -9 10 5 12 3 14 -7 8 -9 -5 -11 -4 -6 3
9 15 11 15 25 -2z m131 -1 c0 -1 -9 -5 -19 -8 -13 -3 -18 -1 -14 9 4 10 33 10
33 -1z m180 3 c0 -11 -12 -10 -30 2 -12 7 -10 9 8 7 12 0 22 -5 22 -9z m597
-3 c5 -4 2 -5 -6 0 -11 6 -13 4 -8 -8 9 -23 0 -21 -13 2 -7 15 -7 19 5 17 8
-1 18 -6 22 -11z m71 -11 c1 -1 -6 -4 -17 -7 -15 -3 -18 -1 -14 11 5 11 3 13
-7 7 -9 -5 -11 -4 -6 4 6 9 12 9 24 -1 10 -7 18 -13 20 -14z m-2565 2 c4 -10
0 -12 -15 -8 -15 4 -17 7 -6 13 17 11 15 11 21 -5z m2211 5 c4 -5 -3 -7 -14
-4 -23 6 -26 13 -6 13 8 0 17 -4 20 -9z m168 2 c-6 -2 -9 -10 -6 -15 4 -7 2
-8 -5 -4 -13 9 -5 26 12 25 9 0 8 -2 -1 -6z m-2432 -13 c-8 -5 -19 -10 -25
-10 -5 0 -3 5 5 10 8 5 20 10 25 10 6 0 3 -5 -5 -10z m333 -23 c-3 -4 -6 -7
-7 -5 -1 2 -8 12 -16 22 -14 18 -14 18 7 6 12 -8 19 -18 16 -23z m877 23 c0
-5 -4 -10 -10 -10 -5 0 -10 5 -10 10 0 6 5 10 10 10 6 0 10 -4 10 -10z m513
-5 c4 -8 3 -16 -1 -19 -4 -3 -9 4 -9 15 -2 23 3 25 10 4z m74 -16 c-7 -11 -13
-15 -15 -9 -2 6 -9 7 -14 4 -7 -4 -8 -2 -4 5 4 6 12 8 18 5 7 -5 9 -1 5 9 -4
11 -2 14 8 11 11 -5 12 -10 2 -25z m416 14 c-4 -11 -3 -14 5 -9 7 4 12 2 12
-3 0 -6 -4 -11 -9 -11 -14 0 -23 18 -16 30 10 16 15 12 8 -7z m197 -8 c14 -19
14 -19 -2 -6 -10 7 -18 18 -18 24 0 6 1 8 3 6 1 -2 9 -13 17 -24z m-1760 11
c0 -2 -8 -10 -17 -17 -16 -13 -17 -12 -4 4 13 16 21 21 21 13z m90 -11 c-7 -9
-15 -13 -19 -10 -3 3 1 10 9 15 21 14 24 12 10 -5z m60 0 c0 -2 -6 -5 -13 -8
-8 -3 -14 1 -14 8 0 7 6 11 14 8 7 -3 13 -6 13 -8z m167 -7 c-3 -8 -6 -5 -6 6
-1 11 2 17 5 13 3 -3 4 -12 1 -19z m383 7 c5 3 14 -5 20 -17 9 -20 9 -21 -2
-7 -7 9 -17 16 -23 17 -5 0 -10 5 -11 12 -2 6 -1 7 3 0 2 -5 9 -8 13 -5z m90
-10 c14 -19 14 -19 -2 -6 -10 7 -18 18 -18 24 0 6 1 8 3 6 1 -2 9 -13 17 -24z
m50 10 c0 -11 -29 -11 -33 -1 -4 10 1 12 14 9 10 -3 19 -7 19 -8z m677 0 c0
-8 -4 -15 -9 -15 -10 0 -11 14 -1 23 9 10 10 9 10 -8z m-2077 -4 c0 -6 -4 -12
-8 -15 -5 -3 -9 1 -9 9 0 8 4 15 9 15 4 0 8 -4 8 -9z m60 1 c0 -5 -7 -9 -15
-9 -8 0 -12 4 -9 9 3 4 9 8 15 8 5 0 9 -4 9 -8z m340 -23 c0 -5 -5 -9 -12 -9
-6 0 -8 3 -5 7 4 3 1 13 -6 22 -11 14 -10 14 6 2 9 -7 17 -17 17 -22z m90 21
c-8 -5 -19 -10 -25 -10 -5 0 -3 5 5 10 8 5 20 10 25 10 6 0 3 -5 -5 -10z m666
-5 c-1 -8 -6 -18 -11 -22 -4 -5 -5 -2 0 6 6 11 4 13 -11 8 -18 -7 -18 -7 0 8
24 18 25 18 22 0z m308 3 c-3 -4 -9 -8 -15 -8 -5 0 -9 4 -9 8 0 5 7 9 15 9 8
0 12 -4 9 -9z m53 -3 c0 -8 -4 -12 -9 -9 -4 3 -8 9 -8 15 0 5 4 9 8 9 5 0 9
-7 9 -15z m683 5 c0 -5 -4 -10 -10 -10 -5 0 -10 5 -10 10 0 6 5 10 10 10 6 0
10 -4 10 -10z m62 -22 c-8 -8 -9 -4 -5 13 4 13 8 18 11 10 2 -7 -1 -18 -6 -23z
m148 22 c-8 -5 -19 -10 -25 -10 -5 0 -3 5 5 10 8 5 20 10 25 10 6 0 3 -5 -5
-10z m70 6 c0 -2 -7 -7 -16 -10 -8 -3 -12 -2 -9 4 6 10 25 14 25 6z m-2562
-31 c-3 -3 -9 2 -12 12 -6 14 -5 15 5 6 7 -7 10 -15 7 -18z m300 0 c-3 -3 -9
2 -12 12 -6 14 -5 15 5 6 7 -7 10 -15 7 -18z m2335 10 c-3 -9 -8 -14 -10 -11
-3 3 -2 9 2 15 9 16 15 13 8 -4z m-2471 -2 c-6 -2 -9 -10 -6 -15 4 -7 2 -8 -5
-4 -13 9 -5 26 12 25 9 0 8 -2 -1 -6z m361 -10 c-5 -12 -3 -14 8 -8 8 5 11 4
6 0 -4 -5 -14 -10 -22 -11 -12 -2 -12 2 -5 17 13 23 22 25 13 2z m60 -14 c-8
-8 -13 -7 -18 2 -6 8 -4 10 5 4 10 -6 12 -4 6 11 -6 15 -5 17 5 7 9 -10 10
-16 2 -24z m60 10 c-4 -15 -8 -17 -14 -8 -6 11 4 28 18 29 0 0 -1 -9 -4 -21z
m1417 11 c0 -5 -5 -10 -11 -10 -5 0 -7 5 -4 10 3 6 8 10 11 10 2 0 4 -4 4 -10z
m382 -8 c-4 -11 -1 -13 8 -7 8 5 11 4 6 -3 -4 -6 -12 -9 -20 -6 -16 6 -17 31
0 31 7 0 10 -7 6 -15z m68 -1 c7 -15 7 -19 -5 -17 -8 1 -18 6 -22 11 -5 4 -2
5 6 0 11 -6 13 -4 8 8 -9 23 0 21 13 -2z m53 -2 c-4 -15 -8 -17 -14 -8 -6 11
4 28 18 29 0 0 -1 -9 -4 -21z m-2595 -3 c-10 -7 -14 -17 -10 -21 4 -5 1 -5 -7
0 -12 7 -11 10 4 22 24 17 36 17 13 -1z m748 -14 c-17 -16 -18 -16 -5 5 7 12
15 20 18 17 3 -2 -3 -12 -13 -22z m219 18 c-3 -5 -12 -10 -18 -10 -7 0 -6 4 3
10 19 12 23 12 15 0z m480 1 c-6 -5 -21 -11 -35 -15 -21 -5 -20 -3 5 9 35 17
42 18 30 6z m905 -6 c0 -11 -29 -11 -33 -1 -4 10 1 12 14 9 10 -3 19 -7 19 -8z
m345 -3 c-3 -3 -11 0 -18 7 -9 10 -8 11 6 5 10 -3 15 -9 12 -12z m-1570 -2
c-3 -5 -12 -10 -18 -10 -7 0 -6 4 3 10 19 12 23 12 15 0z m108 -9 c3 -13 1
-18 -9 -14 -7 2 -10 11 -7 19 7 19 10 18 16 -5z m454 4 c5 -4 2 -5 -6 0 -11 6
-13 4 -8 -8 9 -23 0 -21 -13 2 -7 15 -7 19 5 17 8 -1 18 -6 22 -11z m43 -20
c0 -5 -5 -3 -10 5 -5 8 -10 20 -10 25 0 6 5 3 10 -5 5 -8 10 -19 10 -25z m400
31 c0 -2 -7 -7 -16 -10 -8 -3 -12 -2 -9 4 6 10 25 14 25 6z m36 -8 c5 -7 3 -8
-6 -3 -10 6 -12 4 -6 -11 5 -14 4 -16 -5 -7 -6 6 -8 16 -5 22 9 14 13 14 22
-1z m68 -11 c4 4 4 -1 0 -12 -5 -11 -9 -14 -12 -7 -2 7 -8 10 -13 7 -5 -4 -6
2 -2 11 5 13 3 15 -7 9 -9 -6 -11 -4 -5 5 6 10 11 10 20 -3 7 -9 15 -14 19
-10z m49 9 c4 -10 0 -12 -15 -8 -15 4 -17 7 -6 13 17 11 15 11 21 -5z m-2135
-14 c2 -7 -1 -12 -8 -12 -6 0 -8 5 -4 12 5 8 2 9 -10 5 -11 -4 -15 -3 -11 4 8
12 27 7 33 -9z m1032 14 c0 -2 -7 -7 -16 -10 -8 -3 -12 -2 -9 4 6 10 25 14 25
6z m423 -3 c3 -5 -8 -8 -23 -8 -15 0 -26 3 -23 8 2 4 13 7 23 7 10 0 21 -3 23
-7z m1022 -3 c-3 -5 0 -10 7 -11 10 0 10 -2 0 -6 -6 -2 -10 -9 -7 -13 3 -5 0
-12 -7 -16 -7 -4 -10 -4 -6 1 4 4 0 14 -10 22 -16 12 -16 13 1 7 10 -4 17 -3
16 2 -2 14 0 24 7 24 3 0 2 -4 -1 -10z m-2521 -16 c3 -8 2 -12 -4 -9 -6 3 -10
10 -10 16 0 14 7 11 14 -7z m359 -1 c-3 -7 -6 -13 -8 -13 -2 0 -5 6 -8 13 -3
8 1 14 8 14 7 0 11 -6 8 -14z m632 7 c3 -6 -1 -7 -9 -4 -18 7 -21 14 -7 14 6
0 13 -4 16 -10z m526 -13 c-10 -9 -11 -8 -5 6 3 10 9 15 12 12 3 -3 0 -11 -7
-18z m400 -11 c-14 -36 -22 -33 -9 5 6 16 12 28 14 26 3 -2 0 -16 -5 -31z
m364 25 c3 -5 0 -13 -6 -17 -7 -4 -9 -3 -5 4 3 5 0 13 -6 15 -9 4 -10 6 -1 6
6 1 14 -3 18 -8z m-2365 -16 c-14 -17 -30 -20 -30 -4 0 5 4 8 9 4 5 -3 12 -1
16 5 3 5 9 10 12 10 3 0 0 -7 -7 -15z m690 0 c0 -1 -8 -5 -18 -7 -11 -3 -19 0
-19 7 0 7 8 10 19 7 10 -2 18 -6 18 -7z m478 -10 c-3 -3 -9 2 -12 12 -6 14 -5
15 5 6 7 -7 10 -15 7 -18z m164 2 c-7 -8 -10 -16 -7 -19 3 -3 -2 -11 -12 -19
-15 -12 -16 -12 -8 1 6 8 10 17 11 20 3 17 17 40 22 36 3 -3 0 -12 -6 -19z
m631 8 c-3 -9 -8 -14 -10 -11 -3 3 -2 9 2 15 9 16 15 13 8 -4z m-1393 1 c0 -3
-4 -8 -10 -11 -5 -3 -10 -1 -10 4 0 6 5 11 10 11 6 0 10 -2 10 -4z m37 -16
c-1 -11 -5 -20 -9 -20 -10 0 -10 4 -2 24 8 22 13 20 11 -4z m456 6 c4 -11 1
-13 -10 -9 -12 5 -14 3 -8 -7 5 -9 4 -11 -4 -6 -9 6 -9 11 0 22 14 17 16 17
22 0z m70 -8 c5 -21 5 -21 -7 -6 -7 10 -17 14 -21 10 -5 -4 -5 -1 -1 6 11 19
23 14 29 -10z m139 -10 c-8 -8 -9 -4 -5 13 4 13 8 18 11 10 2 -7 -1 -18 -6
-23z m234 20 c5 -7 3 -8 -6 -3 -9 6 -12 4 -8 -7 4 -8 0 -15 -7 -15 -10 0 -11
5 -4 19 11 21 15 22 25 6z m535 -11 c-10 -9 -11 -8 -5 6 3 10 9 15 12 12 3 -3
0 -11 -7 -18z m97 -3 c1 -1 -6 -4 -17 -7 -15 -3 -18 -1 -14 11 5 11 3 13 -7 7
-9 -5 -11 -4 -6 4 6 9 12 9 24 -1 10 -7 18 -13 20 -14z m32 17 c0 -6 -4 -12
-8 -15 -5 -3 -9 1 -9 9 0 8 4 15 9 15 4 0 8 -4 8 -9z m120 5 c0 -2 -7 -7 -16
-10 -8 -3 -12 -2 -9 4 6 10 25 14 25 6z m200 0 c0 -3 -4 -8 -10 -11 -5 -3 -10
-1 -10 4 0 6 5 11 10 11 6 0 10 -2 10 -4z m-2445 -16 c-3 -5 -1 -10 6 -10 7 0
10 -3 6 -6 -9 -9 -28 6 -22 17 4 5 8 9 11 9 3 0 2 -4 -1 -10z m1367 -8 c-7 -2
-10 -8 -7 -13 4 -5 -2 -6 -11 -2 -11 4 -13 8 -6 11 7 2 10 8 7 13 -4 5 2 6 11
2 11 -4 13 -8 6 -11z m913 9 c3 -5 0 -13 -6 -17 -8 -5 -9 -3 -4 6 6 10 4 12
-9 7 -10 -4 -15 -3 -11 3 8 13 22 13 30 1z m-2080 -10 c-9 -8 -36 -10 -30 -2
2 4 11 8 20 8 8 0 13 -3 10 -6z m958 -17 c-7 -19 -10 -18 -16 5 -3 13 -1 18 9
14 7 -2 10 -11 7 -19z m730 5 c-4 -15 -8 -17 -14 -8 -6 11 4 28 18 29 0 0 -1
-9 -4 -21z m-389 -2 c-3 -8 -11 -14 -19 -14 -21 0 -19 15 3 20 9 3 18 5 19 6
1 0 0 -5 -3 -12z m546 -2 c0 -11 -29 -11 -33 -1 -4 10 1 12 14 9 10 -3 19 -7
19 -8z m-1680 -6 c0 -3 -9 -9 -19 -12 -13 -3 -18 0 -15 7 5 13 34 18 34 5z
m568 -14 c-3 -3 -9 2 -12 12 -6 14 -5 15 5 6 7 -7 10 -15 7 -18z m52 17 c0 -4
-10 -9 -22 -9 -18 -2 -20 0 -8 7 18 12 30 13 30 2z m64 0 c3 -5 -1 -9 -9 -9
-8 0 -15 4 -15 9 0 4 4 8 9 8 6 0 12 -4 15 -8z m61 -2 c-3 -5 -12 -10 -18 -10
-7 0 -6 4 3 10 19 12 23 12 15 0z m110 -8 c-3 -3 -11 0 -18 7 -9 10 -8 11 6 5
10 -3 15 -9 12 -12z m105 3 c0 -1 -9 -5 -19 -8 -13 -3 -18 -1 -14 9 4 10 33
10 33 -1z m505 5 c-3 -5 -12 -10 -18 -10 -7 0 -6 4 3 10 19 12 23 12 15 0z
m406 -17 c-12 -20 -14 -14 -5 12 4 9 9 14 11 11 3 -2 0 -13 -6 -23z m84 17 c3
-5 1 -10 -4 -10 -6 0 -11 5 -11 10 0 6 2 10 4 10 3 0 8 -4 11 -10z m-885 -4
c0 -2 -7 -7 -16 -10 -8 -3 -12 -2 -9 4 6 10 25 14 25 6z m725 -6 c3 -6 -1 -7
-9 -4 -18 7 -21 14 -7 14 6 0 13 -4 16 -10z m-2240 -18 c-3 -3 -11 0 -18 7 -9
10 -8 11 6 5 10 -3 15 -9 12 -12z m101 6 c4 -7 3 -8 -4 -4 -7 4 -12 2 -12 -5
0 -7 -3 -10 -6 -6 -6 5 3 27 11 27 2 0 7 -5 11 -12z m374 -18 c0 -23 -16 -35
-26 -19 -5 8 -3 9 6 4 10 -6 12 -1 8 18 -3 15 -1 24 3 21 5 -3 9 -14 9 -24z
m118 -1 c-3 -8 -7 -3 -11 10 -4 17 -3 21 5 13 5 -5 8 -16 6 -23z m486 19 c-5
-7 -2 -9 9 -5 11 4 14 2 10 -9 -3 -8 -8 -12 -11 -10 -3 3 -10 -2 -17 -11 -9
-13 -14 -13 -20 -3 -5 9 -4 11 3 6 7 -4 13 -2 13 3 1 6 3 16 4 21 1 6 3 12 4
15 0 3 4 5 7 5 3 0 2 -5 -2 -12z m120 0 c-5 -7 -2 -9 7 -6 10 4 15 -1 15 -12
0 -11 -5 -16 -15 -12 -10 4 -12 1 -6 -8 5 -8 4 -11 -2 -7 -5 3 -9 16 -7 29 3
28 3 28 10 28 3 0 2 -5 -2 -12z m280 -4 c3 -8 2 -12 -4 -9 -6 3 -10 10 -10 16
0 14 7 11 14 -7z m522 -1 c-3 -3 -1 -15 5 -27 9 -19 9 -19 -4 -4 -8 10 -16 15
-19 12 -3 -2 -8 2 -11 10 -4 11 -1 13 10 9 12 -5 14 -3 8 7 -6 9 -4 11 4 6 7
-5 10 -10 7 -13z m201 -3 c1 -11 -2 -20 -5 -20 -4 0 -8 9 -9 20 -1 11 2 20 5
20 4 0 8 -9 9 -20z m158 11 c3 -6 -3 -14 -13 -20 -14 -7 -19 -6 -19 4 0 7 7
11 15 7 10 -3 13 -1 8 6 -4 7 -5 12 -2 12 3 0 7 -4 11 -9z m141 -3 c4 -6 3 -8
-3 -5 -6 4 -14 0 -17 -9 -3 -8 -10 -13 -15 -10 -5 4 -12 1 -14 -4 -4 -7 -5 -6
-4 0 2 7 6 10 10 8 5 -2 13 5 18 15 12 20 15 21 25 5z m-1369 -20 c-3 -8 -6
-5 -6 6 -1 11 2 17 5 13 3 -3 4 -12 1 -19z m120 -10 c-3 -7 -5 -2 -5 12 0 14
2 19 5 13 2 -7 2 -19 0 -25z m90 13 c-1 -12 -6 -17 -16 -13 -10 4 -12 1 -6 -8
5 -8 4 -11 -3 -6 -6 4 -9 13 -6 21 4 8 10 12 15 9 5 -3 9 0 9 5 0 6 2 11 4 11
3 0 4 -9 3 -19z m418 9 c-3 -5 -12 -10 -18 -10 -7 0 -6 4 3 10 19 12 23 12 15
0z m105 -5 c5 3 14 -5 20 -17 9 -20 9 -21 -2 -7 -7 9 -17 16 -23 17 -5 0 -10
5 -11 12 -2 6 -1 7 3 0 2 -5 9 -8 13 -5z m90 -10 c14 -19 14 -19 -2 -6 -10 7
-18 18 -18 24 0 6 1 8 3 6 1 -2 9 -13 17 -24z m119 9 c4 3 8 -5 8 -16 2 -20 1
-20 -12 -2 -8 11 -14 24 -14 29 0 6 3 4 6 -3 2 -6 8 -10 12 -8z m-1664 -4 c3
-6 -1 -7 -9 -4 -18 7 -21 14 -7 14 6 0 13 -4 16 -10z m122 -12 c-3 -8 -6 -5
-6 6 -1 11 2 17 5 13 3 -3 4 -12 1 -19z m263 16 c0 -8 -19 -13 -24 -6 -3 5 1
9 9 9 8 0 15 -2 15 -3z m1355 -3 c-9 -8 -36 -10 -30 -2 2 4 11 8 20 8 8 0 13
-3 10 -6z m272 -5 c0 -8 -6 -12 -15 -8 -11 4 -13 1 -7 -8 6 -9 4 -11 -5 -5
-10 6 -9 11 5 22 23 16 22 16 22 -1z m120 -8 c-3 -8 -6 -5 -6 6 -1 11 2 17 5
13 3 -3 4 -12 1 -19z m-2196 -11 c-10 -9 -11 -8 -5 6 3 10 9 15 12 12 3 -3 0
-11 -7 -18z m600 0 c-10 -9 -11 -8 -5 6 3 10 9 15 12 12 3 -3 0 -11 -7 -18z
m776 8 c0 -8 -4 -15 -9 -15 -10 0 -11 14 -1 23 9 10 10 9 10 -8z m120 -2 c-4
-3 -1 -13 6 -22 11 -14 10 -14 -5 -2 -21 15 -23 31 -6 31 6 0 8 -3 5 -7z
m-545 -18 c3 3 11 -3 19 -12 12 -16 12 -17 -2 -6 -9 7 -18 11 -21 8 -3 -3 -11
3 -19 12 -12 16 -12 17 2 6 9 -7 18 -11 21 -8z m643 6 c-6 -5 -21 -11 -35 -15
-21 -5 -20 -3 5 9 35 17 42 18 30 6z m119 -5 c-3 -9 -12 -12 -22 -9 -15 6 -9
11 25 22 1 1 0 -5 -3 -13z m-1729 -6 c3 -6 -1 -7 -9 -4 -18 7 -21 14 -7 14 6
0 13 -4 16 -10z m188 -4 c3 -8 0 -17 -7 -19 -10 -4 -12 1 -9 14 6 23 9 24 16
5z m404 -2 c0 -7 -6 -10 -14 -7 -7 3 -13 8 -13 12 0 4 6 8 13 8 8 0 14 -6 14
-13z m133 6 c8 -5 11 -10 5 -10 -5 0 -17 5 -25 10 -8 5 -10 10 -5 10 6 0 17
-5 25 -10z m183 -4 c3 -8 0 -17 -7 -19 -10 -4 -12 1 -9 14 6 23 9 24 16 5z
m437 4 c12 -7 10 -9 -8 -7 -12 0 -22 5 -22 9 0 11 12 10 30 -2z m79 -8 c7 -14
6 -19 -4 -19 -7 0 -11 7 -7 15 4 11 1 13 -8 7 -9 -5 -11 -4 -6 3 10 16 14 15
25 -6z m371 3 c0 -1 -9 -5 -19 -8 -13 -3 -18 -1 -14 9 4 10 33 10 33 -1z m56
3 c5 -7 3 -8 -6 -3 -10 6 -12 4 -6 -11 4 -10 4 -15 0 -11 -4 4 -12 -1 -19 -10
-9 -13 -14 -13 -20 -3 -6 9 -4 11 5 5 10 -6 12 -4 7 9 -4 9 -3 15 2 12 5 -3
11 1 15 9 7 18 12 19 22 3z m68 -11 c4 4 4 -1 0 -12 -5 -11 -9 -14 -12 -7 -2
7 -8 10 -13 7 -5 -4 -6 2 -2 11 5 13 3 15 -7 9 -9 -6 -11 -4 -5 5 6 10 11 10
20 -3 7 -9 15 -14 19 -10z m189 9 c3 -8 0 -17 -7 -19 -10 -4 -12 1 -9 14 6 23
9 24 16 5z m-2075 -21 c-3 -3 -9 2 -12 12 -6 14 -5 15 5 6 7 -7 10 -15 7 -18z
m597 6 c3 -5 0 -13 -6 -17 -7 -4 -9 -3 -5 4 3 5 0 13 -6 15 -9 4 -10 6 -1 6 6
1 14 -3 18 -8z m680 0 c3 -6 -3 -14 -13 -20 -14 -7 -19 -6 -19 4 0 7 7 11 15
7 10 -3 13 -1 8 6 -4 7 -5 12 -2 12 3 0 7 -4 11 -9z m367 2 c-6 -2 -9 -10 -6
-15 4 -7 2 -8 -5 -4 -13 9 -5 26 12 25 9 0 8 -2 -1 -6z m363 -22 c0 -16 -3
-27 -7 -24 -13 7 -7 53 6 53 1 0 1 -13 1 -29z m-1981 3 c3 -8 2 -12 -4 -9 -6
3 -10 10 -10 16 0 14 7 11 14 -7z m473 2 c0 -8 -6 -12 -15 -9 -11 5 -11 7 0
14 7 5 13 9 14 9 0 0 1 -6 1 -14z m246 0 c3 -8 0 -17 -7 -19 -10 -4 -12 1 -9
14 6 23 9 24 16 5z m617 -7 c0 -5 -4 -9 -8 -9 -5 0 -9 7 -9 15 0 8 4 12 9 9 4
-3 8 -9 8 -15z m122 -1 c-9 -9 -15 -9 -24 1 -11 10 -10 11 5 6 10 -5 17 -2 17
6 0 7 3 9 7 6 4 -4 1 -13 -5 -19z m-1404 0 c-2 -7 4 -11 12 -10 8 2 11 0 7 -4
-12 -12 -38 -14 -30 -1 4 7 0 8 -13 4 -18 -7 -18 -7 0 8 24 18 27 19 24 3z
m450 -13 c-3 -3 -9 2 -12 12 -6 14 -5 15 5 6 7 -7 10 -15 7 -18z m263 2 c-10
-9 -11 -8 -5 6 3 10 9 15 12 12 3 -3 0 -11 -7 -18z m64 5 c-3 -3 -11 0 -18 7
-9 10 -8 11 6 5 10 -3 15 -9 12 -12z m369 9 c3 -5 -1 -11 -9 -14 -9 -4 -12 -1
-8 9 6 16 10 17 17 5z m616 -1 c0 -5 -4 -10 -10 -10 -5 0 -10 5 -10 10 0 6 5
10 10 10 6 0 10 -4 10 -10z m294 -2 c-3 -4 -11 -5 -19 -1 -21 7 -19 12 4 10
11 0 18 -5 15 -9z m-2171 -12 c6 -15 -17 -16 -30 -1 -4 4 -2 5 5 1 6 -4 12 -2
12 3 0 15 7 14 13 -3z m714 0 c0 -8 -6 -12 -15 -9 -11 5 -11 7 0 14 7 5 13 9
14 9 0 0 1 -6 1 -14z m727 -3 c4 -10 4 -14 0 -10 -4 4 -12 -1 -19 -10 -9 -13
-14 -13 -20 -3 -6 9 -4 11 5 5 10 -6 12 -4 7 9 -4 10 -3 15 3 11 6 -3 10 -1
10 4 0 16 7 13 14 -6z m158 -1 c-7 -2 -10 -8 -7 -13 4 -5 -2 -6 -11 -2 -11 4
-13 8 -6 11 7 2 10 8 7 13 -4 5 2 6 11 2 11 -4 13 -8 6 -11z m115 3 c0 -8 -4
-15 -9 -15 -10 0 -11 14 -1 23 9 10 10 9 10 -8z m-860 -10 c0 -8 -4 -12 -9 -9
-5 3 -6 10 -3 15 9 13 12 11 12 -6z m340 -1 c0 -17 -25 -26 -33 -12 -5 7 -2 8
6 3 9 -6 12 -4 8 7 -4 8 -1 15 6 15 7 0 13 -6 13 -13z m165 -2 c-4 -11 -1 -13
8 -7 8 5 11 4 6 -3 -4 -6 -12 -9 -20 -6 -16 6 -17 31 0 31 7 0 10 -7 6 -15z
m481 1 c-5 -12 -3 -14 7 -8 9 6 11 4 5 -4 -5 -9 -11 -9 -17 -3 -6 6 -7 15 -4
21 11 17 16 13 9 -6z m66 -5 c-11 -21 -15 -22 -25 -6 -5 7 -3 8 6 3 9 -6 12
-4 8 7 -4 8 0 15 7 15 10 0 11 -5 4 -19z m-1855 -1 c-4 -11 -44 -19 -44 -10 0
3 33 18 47 22 1 1 0 -5 -3 -12z m386 4 c0 -6 -4 -12 -8 -15 -5 -3 -9 1 -9 9 0
8 4 15 9 15 4 0 8 -4 8 -9z m1054 -5 c-3 -9 -12 -12 -22 -9 -15 6 -9 11 25 22
1 1 0 -5 -3 -13z m583 7 c-4 -3 1 -12 11 -20 16 -13 15 -13 -3 -5 -11 5 -27 7
-35 5 -9 -3 -7 1 5 11 20 15 34 22 22 9z m-1516 -16 c-6 -8 -8 -17 -4 -20 3
-4 1 -7 -5 -7 -15 0 -15 13 0 28 16 16 23 15 9 -1z m94 -8 c5 -5 -5 -4 -23 2
-17 6 -32 13 -32 16 0 7 43 -8 55 -18z m45 17 c0 -2 -7 -7 -16 -10 -8 -3 -12
-2 -9 4 6 10 25 14 25 6z m63 -15 c3 -13 1 -18 -9 -14 -7 2 -10 11 -7 19 7 19
10 18 16 -5z m385 7 c15 -15 15 -28 1 -28 -5 0 -8 4 -4 9 3 6 -3 14 -12 20
-10 6 -13 11 -7 11 5 0 15 -5 22 -12z m95 -7 c3 -13 1 -18 -9 -14 -7 2 -10 11
-7 19 7 19 10 18 16 -5z m306 5 c9 -11 9 -16 0 -22 -8 -5 -9 -3 -4 6 6 10 4
12 -8 7 -11 -4 -14 -2 -10 9 6 17 8 17 22 0z m200 -8 c-12 -23 -21 -24 -12 -1
5 12 3 14 -7 8 -8 -5 -11 -4 -7 2 3 5 13 10 21 10 11 0 13 -5 5 -19z m-1274 3
c3 -5 0 -13 -6 -17 -8 -5 -9 -3 -4 6 6 10 4 12 -9 7 -10 -4 -15 -3 -11 3 8 13
22 13 30 1z m1205 5 c0 -2 -9 -6 -20 -9 -11 -3 -18 -1 -14 4 5 9 34 13 34 5z
m-1077 -26 c-3 -12 -8 -19 -11 -16 -5 6 5 36 12 36 2 0 2 -9 -1 -20z m912 -8
c2 -12 -3 -23 -11 -26 -11 -4 -12 -1 -6 12 5 9 7 24 4 32 -2 8 -2 12 2 9 4 -4
8 -16 11 -27z m124 -4 c6 -18 7 -28 2 -23 -10 12 -25 55 -18 55 3 0 10 -15 16
-32z m238 17 c0 -8 -4 -12 -9 -9 -4 3 -8 9 -8 15 0 5 4 9 8 9 5 0 9 -7 9 -15z
m-1204 -10 c-3 -9 -8 -14 -10 -11 -3 3 -2 9 2 15 9 16 15 13 8 -4z m447 0 c4
3 10 -2 13 -10 4 -10 1 -12 -10 -8 -12 5 -14 3 -8 -8 4 -8 4 -11 0 -6 -5 4
-10 18 -11 30 -2 12 0 16 2 9 3 -6 9 -10 14 -7z m156 -2 c-2 -9 -9 -19 -17
-21 -11 -3 -11 -1 1 7 8 6 11 11 7 11 -5 0 -5 5 -2 10 9 15 14 12 11 -7z m411
11 c-3 -3 -12 -4 -19 -1 -8 3 -5 6 6 6 11 1 17 -2 13 -5z m34 -11 c13 -16 12
-17 -3 -4 -17 13 -22 21 -14 21 2 0 10 -8 17 -17z m280 -6 c-10 -9 -11 -8 -5
6 3 10 9 15 12 12 3 -3 0 -11 -7 -18z m-1584 -2 c5 -4 2 -5 -6 0 -11 6 -13 4
-8 -7 4 -12 1 -14 -16 -10 -12 3 -16 7 -9 10 7 2 10 7 7 12 -7 11 22 7 32 -5z
m68 5 c-3 -5 -12 -10 -18 -10 -7 0 -6 4 3 10 19 12 23 12 15 0z m132 -12 c-3
-8 -6 -5 -6 6 -1 11 2 17 5 13 3 -3 4 -12 1 -19z m103 16 c0 -8 -19 -13 -24
-6 -3 5 1 9 9 9 8 0 15 -2 15 -3z m264 -2 c3 -5 -1 -9 -9 -9 -8 0 -12 4 -9 9
3 4 7 8 9 8 2 0 6 -4 9 -8z m247 -9 c12 -16 12 -17 -2 -6 -9 7 -19 10 -22 6
-4 -3 -7 -1 -7 5 0 17 16 15 31 -5z m113 9 c3 -5 -1 -9 -9 -9 -8 0 -15 4 -15
9 0 4 4 8 9 8 6 0 12 -4 15 -8z m56 4 c0 -3 -4 -8 -10 -11 -5 -3 -10 -1 -10 4
0 6 5 11 10 11 6 0 10 -2 10 -4z m38 -16 c-7 -10 -14 -17 -17 -15 -4 4 18 35
25 35 2 0 -1 -9 -8 -20z m152 14 c0 -8 -19 -13 -24 -6 -3 5 1 9 9 9 8 0 15 -2
15 -3z m200 -4 c8 -5 11 -10 5 -10 -5 0 -17 5 -25 10 -8 5 -10 10 -5 10 6 0
17 -5 25 -10z m125 -9 c3 -5 0 -13 -6 -17 -8 -5 -9 -3 -4 6 6 10 4 12 -9 7
-10 -4 -15 -3 -11 3 8 13 22 13 30 1z m-995 -11 c0 -5 -5 -10 -11 -10 -5 0 -7
5 -4 10 3 6 8 10 11 10 2 0 4 -4 4 -10z m400 -5 c0 -1 -6 -8 -14 -14 -11 -9
-16 -9 -22 0 -5 8 -3 9 6 4 10 -6 12 -4 7 8 -4 11 -2 14 9 10 7 -3 14 -6 14
-8z m393 -11 c-7 -19 -10 -18 -16 5 -3 13 -1 18 9 14 7 -2 10 -11 7 -19z m50
9 c-5 -12 -3 -14 8 -8 8 5 11 4 6 0 -4 -5 -14 -10 -22 -11 -12 -2 -12 2 -5 17
13 23 22 25 13 2z m77 2 c0 -1 -6 -8 -14 -14 -11 -9 -16 -9 -22 0 -5 8 -3 9 6
4 10 -6 12 -4 7 8 -4 11 -2 14 9 10 7 -3 14 -6 14 -8z m-1539 -18 c-10 -9 -11
-8 -5 6 3 10 9 15 12 12 3 -3 0 -11 -7 -18z m153 9 c-3 -9 -12 -12 -22 -9 -15
6 -9 11 25 22 1 1 0 -5 -3 -13z m1026 -1 c0 -11 -29 -11 -33 -1 -4 10 1 12 14
9 10 -3 19 -7 19 -8z m-960 -10 c0 -1 -9 -5 -19 -8 -13 -3 -18 -1 -14 9 4 10
33 10 33 -1z m60 11 c0 -2 -7 -7 -16 -10 -8 -3 -12 -2 -9 4 6 10 25 14 25 6z
m316 -8 c5 -7 3 -8 -6 -3 -10 6 -12 4 -6 -11 5 -14 4 -16 -5 -7 -6 6 -8 16 -5
22 9 14 13 14 22 -1z m53 -6 c7 -14 6 -19 -4 -19 -7 0 -11 7 -7 15 4 11 1 13
-8 7 -9 -5 -11 -4 -6 3 10 16 14 15 25 -6z m204 4 c3 -8 0 -17 -7 -19 -10 -4
-12 1 -9 14 6 23 9 24 16 5z m512 4 c-3 -5 -12 -10 -18 -10 -7 0 -6 4 3 10 19
12 23 12 15 0z m218 -9 c3 -13 1 -18 -9 -14 -7 2 -10 11 -7 19 7 19 10 18 16
-5z m67 9 c-18 -12 -30 -13 -30 -2 0 4 10 9 22 9 18 2 20 0 8 -7z m-735 -10
c3 -6 -1 -7 -9 -4 -18 7 -21 14 -7 14 6 0 13 -4 16 -10z m-944 -27 c-12 -20
-14 -14 -5 12 4 9 9 14 11 11 3 -2 0 -13 -6 -23z m203 11 c3 -8 2 -12 -4 -9
-6 3 -10 10 -10 16 0 14 7 11 14 -7z m757 -18 c-14 -36 -22 -33 -9 5 6 16 12
28 14 26 3 -2 0 -16 -5 -31z m131 16 c-4 -11 -1 -13 8 -7 8 5 11 4 6 -3 -4 -6
-12 -9 -20 -6 -16 6 -17 31 0 31 7 0 10 -7 6 -15z m155 12 c-3 -3 -12 -4 -19
-1 -8 3 -5 6 6 6 11 1 17 -2 13 -5z m157 -6 c-5 -8 -1 -9 12 -5 18 7 18 6 2
-6 -10 -8 -15 -16 -12 -19 3 -4 0 -9 -7 -14 -8 -5 -10 -3 -4 6 6 10 3 12 -11
7 -18 -7 -18 -7 0 8 11 8 16 15 12 15 -4 0 -4 5 -1 10 3 6 8 10 11 10 3 0 2
-5 -2 -12z m-481 -13 c-3 -9 -8 -14 -10 -11 -3 3 -2 9 2 15 9 16 15 13 8 -4z
m111 -1 c3 -8 2 -13 -3 -9 -5 3 -11 0 -13 -7 -3 -7 -7 -5 -11 6 -4 10 -3 15 3
11 6 -3 10 -1 10 4 0 16 7 13 14 -5z m317 1 c5 4 6 -2 2 -11 -4 -11 -8 -13
-11 -6 -2 7 -8 10 -13 7 -5 -4 -6 2 -2 11 4 11 8 13 11 6 2 -7 8 -10 13 -7z
m349 0 c0 -2 -6 -5 -13 -8 -8 -3 -14 1 -14 8 0 7 6 11 14 8 7 -3 13 -6 13 -8z
m-1653 -15 c-1 -11 -5 -20 -9 -20 -10 0 -10 4 -2 24 8 22 13 20 11 -4z m474
-7 c-12 -20 -14 -14 -5 12 4 9 9 14 11 11 3 -2 0 -13 -6 -23z m93 4 c4 4 4 -1
0 -11 -6 -15 -4 -17 6 -11 9 6 11 4 5 -5 -6 -10 -11 -10 -20 3 -7 9 -15 14
-19 10 -4 -4 -4 1 0 11 6 15 4 17 -6 11 -9 -6 -11 -4 -5 5 6 10 11 10 20 -3 7
-9 15 -14 19 -10z m36 13 c0 -5 -4 -10 -10 -10 -5 0 -10 5 -10 10 0 6 5 10 10
10 6 0 10 -4 10 -10z m111 -7 c13 -16 12 -17 -3 -4 -17 13 -22 21 -14 21 2 0
10 -8 17 -17z m52 -3 c3 -11 1 -18 -4 -14 -5 3 -9 12 -9 20 0 20 7 17 13 -6z
m477 -15 c0 -5 -5 -3 -10 5 -5 8 -10 20 -10 25 0 6 5 3 10 -5 5 -8 10 -19 10
-25z m240 25 c0 -5 -2 -10 -4 -10 -3 0 -8 5 -11 10 -3 6 -1 10 4 10 6 0 11 -4
11 -10z m114 2 c3 -5 -1 -9 -9 -9 -8 0 -12 4 -9 9 3 4 7 8 9 8 2 0 6 -4 9 -8z
m-950 -19 c4 -10 4 -14 0 -10 -4 4 -12 -1 -19 -10 -9 -13 -14 -13 -20 -3 -6 9
-4 11 5 5 10 -6 12 -4 7 9 -4 10 -3 15 3 11 6 -3 10 -1 10 4 0 16 7 13 14 -6z
m516 -4 c0 -5 -4 -9 -8 -9 -5 0 -9 7 -9 15 0 8 4 12 9 9 4 -3 8 -9 8 -15z
m-1277 -10 c-4 -15 -8 -17 -14 -8 -6 11 4 28 18 29 0 0 -1 -9 -4 -21z m960 0
c-4 -15 -8 -17 -14 -8 -6 11 4 28 18 29 0 0 -1 -9 -4 -21z m679 14 c-6 -2 -9
-10 -6 -15 4 -7 2 -8 -5 -4 -13 9 -5 26 12 25 9 0 8 -2 -1 -6z m-1011 -21 c-7
-2 -18 1 -23 6 -8 8 -4 9 13 5 13 -4 18 -8 10 -11z m697 4 c-10 -7 -15 -15
-12 -18 2 -3 -2 -8 -10 -11 -11 -4 -13 -1 -9 10 5 12 3 14 -7 8 -9 -5 -11 -4
-6 4 4 6 11 9 15 7 4 -3 13 -1 21 5 22 13 27 10 8 -5z m-1162 -23 c-6 -6 -36
9 -36 18 0 5 9 4 20 -3 10 -7 18 -14 16 -15z m739 17 c-3 -5 -12 -10 -18 -10
-7 0 -6 4 3 10 19 12 23 12 15 0z m110 -8 c-3 -3 -11 0 -18 7 -9 10 -8 11 6 5
10 -3 15 -9 12 -12z m70 9 c-9 -8 -36 -10 -30 -2 2 4 11 8 20 8 8 0 13 -3 10
-6z m60 -1 c3 -6 -1 -7 -9 -4 -18 7 -21 14 -7 14 6 0 13 -4 16 -10z m112 -5
c5 -4 2 -5 -6 0 -11 6 -13 4 -8 -8 9 -23 0 -21 -13 2 -7 15 -7 19 5 17 8 -1
18 -6 22 -11z m186 -4 c3 -13 1 -18 -9 -14 -7 2 -10 11 -7 19 7 19 10 18 16
-5z m-1468 -1 c3 -6 -1 -7 -9 -4 -18 7 -21 14 -7 14 6 0 13 -4 16 -10z m60 -9
c3 -6 -3 -14 -13 -20 -14 -7 -19 -6 -19 4 0 7 7 11 15 7 10 -3 13 -1 8 6 -4 7
-5 12 -2 12 3 0 7 -4 11 -9z m960 -23 c-3 -11 -7 -23 -11 -27 -4 -3 -5 1 -2 9
3 8 -2 21 -11 28 -14 11 -14 11 3 5 14 -5 17 -3 11 7 -5 8 -4 11 3 6 6 -3 9
-16 7 -28z m128 12 c-3 -11 -10 -23 -16 -27 -5 -3 -8 -2 -5 3 3 5 8 17 11 27
9 24 16 22 10 -3z m506 -3 c0 -9 -2 -8 -6 1 -2 6 -10 9 -15 6 -7 -4 -8 -2 -4
5 9 13 26 5 25 -12z m-1153 -7 c0 -12 -4 -16 -9 -11 -5 5 -6 14 -3 20 10 15
12 14 12 -9z m41 14 c-3 -3 -12 -4 -19 -1 -8 3 -5 6 6 6 11 1 17 -2 13 -5z
m426 -8 c6 -15 -17 -16 -30 -1 -4 4 -2 5 5 1 6 -4 12 -2 12 3 0 15 7 14 13 -3z
m117 -29 c-8 -9 -9 -7 -4 7 5 13 4 17 -4 12 -6 -3 -14 -1 -18 5 -4 8 -3 9 4 5
7 -4 12 -1 12 6 0 8 5 5 11 -5 8 -14 8 -22 -1 -30z m292 31 c-14 -14 -44 -20
-36 -7 3 5 9 7 14 4 5 -3 11 -1 15 5 3 5 9 10 13 10 3 0 1 -5 -6 -12z m44 -11
c1 -9 -2 -15 -7 -11 -5 3 -7 9 -4 14 3 4 0 11 -5 13 -6 3 -5 4 1 3 7 -1 13
-10 15 -19z m-1056 3 c0 -5 -5 -10 -11 -10 -5 0 -7 5 -4 10 3 6 8 10 11 10 2
0 4 -4 4 -10z m51 -13 c-10 -9 -11 -8 -5 6 3 10 9 15 12 12 3 -3 0 -11 -7 -18z
m266 7 c0 -7 -7 -10 -15 -6 -11 4 -13 1 -7 -8 5 -8 4 -11 -3 -6 -6 4 -9 12 -6
20 6 16 31 17 31 0z m116 2 c4 -11 1 -13 -10 -9 -12 5 -14 3 -8 -7 5 -9 4 -11
-4 -6 -9 6 -9 11 0 22 14 17 16 17 22 0z m103 -11 c1 -8 -2 -15 -6 -15 -5 0
-8 9 -7 20 1 21 10 18 13 -5z m414 15 c8 -5 11 -10 5 -10 -5 0 -17 5 -25 10
-8 5 -10 10 -5 10 6 0 17 -5 25 -10z m175 0 c-3 -5 -12 -10 -18 -10 -7 0 -6 4
3 10 19 12 23 12 15 0z m75 -15 c0 -2 -5 -7 -12 -11 -7 -5 -8 -3 -3 6 6 9 4
12 -7 8 -8 -4 -15 0 -15 7 0 10 5 11 19 4 10 -5 18 -12 18 -14z m-1020 5 c-8
-5 -19 -10 -25 -10 -5 0 -3 5 5 10 8 5 20 10 25 10 6 0 3 -5 -5 -10z m-158 -7
c-6 -2 -10 -9 -7 -13 3 -5 -5 -14 -17 -20 -22 -11 -22 -10 -4 4 11 9 16 16 12
16 -4 0 -4 5 -1 10 3 6 12 10 18 9 9 0 8 -2 -1 -6z m906 -24 c-3 -8 -7 -3 -11
10 -4 17 -3 21 5 13 5 -5 8 -16 6 -23z m95 10 c-4 -15 -8 -17 -14 -8 -6 11 4
28 18 29 0 0 -1 -9 -4 -21z m-1080 -2 c3 -8 -1 -14 -8 -14 -7 0 -11 6 -8 14 3
7 6 13 8 13 2 0 5 -6 8 -13z m757 -2 c0 -11 -29 -11 -33 -1 -4 10 1 12 14 9
10 -3 19 -7 19 -8z m116 -20 c1 -9 1 -15 -1 -13 -2 1 -3 6 -2 10 1 4 -7 14
-18 23 -18 15 -19 16 -1 7 11 -5 21 -17 22 -27z m-556 15 c0 -5 -2 -10 -4 -10
-3 0 -8 5 -11 10 -3 6 -1 10 4 10 6 0 11 -4 11 -10z m80 -25 c0 -5 -5 -3 -10
5 -5 8 -10 20 -10 25 0 6 5 3 10 -5 5 -8 10 -19 10 -25z m113 21 c3 -8 0 -17
-7 -19 -10 -4 -12 1 -9 14 6 23 9 24 16 5z m63 2 c5 -7 3 -8 -6 -3 -10 6 -12
4 -6 -11 5 -14 4 -16 -5 -7 -6 6 -8 16 -5 22 9 14 13 14 22 -1z m53 -6 c7 -14
6 -19 -4 -19 -7 0 -11 7 -7 15 4 11 1 13 -8 7 -9 -5 -11 -4 -6 3 10 16 14 15
25 -6z m571 8 c0 -5 -5 -10 -11 -10 -5 0 -7 5 -4 10 3 6 8 10 11 10 2 0 4 -4
4 -10z m-1027 -7 c3 -5 -8 -8 -23 -8 -15 0 -26 3 -23 8 2 4 13 7 23 7 10 0 21
-3 23 -7z m863 -19 c1 -9 0 -13 -4 -10 -3 4 -7 14 -8 22 -1 9 0 13 4 10 3 -4
7 -14 8 -22z m-1142 0 c3 -8 2 -12 -4 -9 -6 3 -10 10 -10 16 0 14 7 11 14 -7z
m220 0 c3 -8 2 -12 -4 -9 -6 3 -10 10 -10 16 0 14 7 11 14 -7z m77 -7 c-10 -9
-11 -8 -5 6 3 10 9 15 12 12 3 -3 0 -11 -7 -18z m163 11 c-5 -8 -1 -9 12 -4
14 5 16 4 7 -5 -13 -13 -37 -3 -28 12 4 5 8 9 11 9 3 0 2 -5 -2 -12z m441 3
c3 -5 0 -13 -6 -17 -7 -4 -9 -3 -5 4 3 5 0 13 -6 15 -9 4 -10 6 -1 6 6 1 14
-3 18 -8z m445 3 c0 -8 -19 -13 -24 -6 -3 5 1 9 9 9 8 0 15 -2 15 -3z m-1305
-14 c-3 -5 -12 -10 -18 -10 -7 0 -6 4 3 10 19 12 23 12 15 0z m1042 3 c-4 -3
1 -11 10 -18 13 -9 13 -14 3 -20 -9 -6 -11 -4 -5 5 6 10 4 12 -9 7 -10 -4 -15
-3 -11 3 3 6 0 10 -7 10 -9 0 -9 3 2 10 17 11 26 13 17 3z m125 -11 c-7 -2
-10 -8 -7 -13 4 -5 -2 -6 -11 -2 -13 5 -15 3 -9 -7 6 -9 4 -11 -5 -5 -10 6
-10 11 3 20 9 7 14 15 10 19 -4 4 1 4 12 0 11 -5 14 -9 7 -12z m-1059 -14 c5
-21 5 -21 -7 -6 -7 10 -17 14 -21 10 -5 -4 -5 -1 -1 6 11 19 23 14 29 -10z
m178 -10 c-10 -11 -11 -9 -5 6 6 15 4 17 -6 11 -9 -6 -11 -4 -5 4 5 9 10 10
18 2 8 -8 7 -14 -2 -23z m222 12 c3 -11 1 -18 -4 -14 -5 3 -9 12 -9 20 0 20 7
17 13 -6z m157 10 c0 -5 -4 -10 -10 -10 -5 0 -10 5 -10 10 0 6 5 10 10 10 6 0
10 -4 10 -10z m128 -15 c-3 -3 -9 2 -12 12 -6 14 -5 15 5 6 7 -7 10 -15 7 -18z
m209 11 c0 -8 -6 -12 -15 -8 -11 4 -13 1 -7 -8 6 -9 4 -11 -5 -5 -10 6 -9 11
5 22 23 16 22 16 22 -1z m223 -9 c0 -2 -8 -3 -18 -3 -10 0 -19 6 -19 13 0 8 6
9 19 2 10 -5 18 -11 18 -12z m-764 -5 c-3 -3 0 -12 6 -21 10 -13 10 -14 -2 -4
-16 15 -23 46 -8 37 5 -3 7 -9 4 -12z m248 1 c4 -10 4 -14 0 -10 -4 4 -12 -1
-19 -10 -9 -13 -14 -13 -20 -3 -6 9 -4 11 5 5 10 -6 12 -4 7 9 -4 10 -3 15 3
11 6 -3 10 -1 10 4 0 16 7 13 14 -6z m-530 -5 c-5 -7 -2 -9 9 -5 11 4 14 2 10
-9 -4 -11 -9 -12 -19 -3 -12 10 -11 29 2 29 3 0 2 -5 -2 -12z m409 -9 c-4 -15
-8 -17 -14 -8 -6 11 4 28 18 29 0 0 -1 -9 -4 -21z m40 4 c-5 -12 -3 -14 7 -8
9 6 11 4 5 -4 -5 -9 -11 -9 -17 -3 -6 6 -7 15 -4 21 11 17 16 13 9 -6z m-489
-8 c-10 -8 -23 -15 -28 -15 -6 0 -1 7 10 15 10 8 23 15 28 15 6 0 1 -7 -10
-15z m126 0 c0 -11 -29 -11 -33 -1 -4 10 1 12 14 9 10 -3 19 -7 19 -8z m-418
-27 c-8 -8 -9 -4 -5 13 4 13 8 18 11 10 2 -7 -1 -18 -6 -23z m75 17 c5 -4 2
-5 -6 0 -11 6 -13 4 -8 -8 9 -23 0 -21 -13 2 -7 15 -7 19 5 17 8 -1 18 -6 22
-11z m52 1 c9 -10 8 -15 -3 -19 -11 -4 -13 -1 -9 10 5 12 3 14 -7 8 -9 -5 -11
-4 -6 3 9 15 11 15 25 -2z m464 0 c4 -10 0 -12 -15 -8 -15 4 -17 7 -6 13 17
11 15 11 21 -5z m92 4 c-3 -5 -12 -10 -18 -10 -7 0 -6 4 3 10 19 12 23 12 15
0z m253 -10 c-7 -10 -14 -17 -17 -15 -4 4 18 35 25 35 2 0 -1 -9 -8 -20z m72
10 c12 -7 10 -9 -8 -7 -12 0 -22 5 -22 9 0 11 12 10 30 -2z m110 -2 c0 -4 -4
-8 -9 -8 -6 0 -12 4 -15 8 -3 5 1 9 9 9 8 0 15 -4 15 -9z m60 2 c0 -5 -4 -10
-10 -10 -5 0 -10 5 -10 10 0 6 5 10 10 10 6 0 10 -4 10 -10z m95 2 c-8 -9 -55
-11 -55 -3 0 4 13 7 30 7 16 0 28 -2 25 -4z m-819 -17 c-1 -8 -6 -18 -11 -22
-4 -4 -5 -2 -1 5 4 7 2 12 -6 12 -9 0 -9 3 2 10 19 12 19 13 16 -5z m87 -10
c-3 -9 -8 -14 -10 -11 -3 3 -2 9 2 15 9 16 15 13 8 -4z m431 6 c3 -5 0 -14 -8
-20 -10 -9 -15 -8 -19 3 -4 11 -1 13 10 9 11 -4 14 -2 9 5 -4 7 -5 12 -2 12 3
0 7 -4 10 -9z m-731 -14 c7 3 8 2 4 -2 -14 -16 -36 -14 -29 3 4 10 7 12 10 4
2 -7 9 -9 15 -5z m384 -9 c-3 -8 -6 -5 -6 6 -1 11 2 17 5 13 3 -3 4 -12 1 -19z
m97 6 c3 -8 2 -13 -3 -9 -5 3 -11 0 -13 -7 -3 -7 -7 -5 -11 6 -4 10 -3 15 3
11 6 -3 10 -1 10 4 0 16 7 13 14 -5z m41 -2 c-3 -3 -11 0 -18 7 -9 10 -8 11 6
5 10 -3 15 -9 12 -12z m392 -4 c-3 -8 -6 -5 -6 6 -1 11 2 17 5 13 3 -3 4 -12
1 -19z m-1117 0 c0 -6 -3 -8 -7 -5 -3 4 -13 1 -22 -6 -14 -11 -14 -10 -2 6 15
20 31 22 31 5z m57 -3 c0 -8 -4 -12 -9 -9 -4 3 -8 9 -8 15 0 5 4 9 8 9 5 0 9
-7 9 -15z m83 -17 c0 -19 -16 -5 -17 14 -2 18 0 20 7 8 5 -8 10 -18 10 -22z
m117 12 c1 -11 -2 -20 -7 -20 -6 0 -7 17 -1 38 3 8 7 -1 8 -18z m83 16 c0 -2
-7 -7 -16 -10 -8 -3 -12 -2 -9 4 6 10 25 14 25 6z m140 -1 c0 -2 -10 -9 -22
-15 -22 -11 -22 -10 -4 4 21 17 26 19 26 11z m122 -27 c-8 -8 -9 -4 -5 13 4
13 8 18 11 10 2 -7 -1 -18 -6 -23z m178 28 c0 -3 -4 -8 -10 -11 -5 -3 -10 -1
-10 4 0 6 5 11 10 11 6 0 10 -2 10 -4z m47 -18 c-3 -8 -6 -5 -6 6 -1 11 2 17
5 13 3 -3 4 -12 1 -19z m226 -1 c-5 -8 -8 -7 -11 1 -2 7 -9 9 -14 6 -7 -4 -8
-2 -4 4 4 6 13 9 21 6 8 -4 12 -11 8 -17z m-675 -12 c-3 -3 -9 2 -12 12 -6 14
-5 15 5 6 7 -7 10 -15 7 -18z m166 9 c3 -8 2 -12 -4 -9 -6 3 -10 10 -10 16 0
14 7 11 14 -7z m359 2 c4 -10 1 -13 -8 -9 -8 3 -12 9 -9 14 7 12 11 11 17 -5z
m-943 -21 c14 -19 14 -19 -2 -6 -10 7 -18 18 -18 24 0 6 1 8 3 6 1 -2 9 -13
17 -24z m374 13 c-5 -8 -1 -9 12 -4 14 5 16 4 7 -5 -13 -13 -37 -3 -28 12 4 5
8 9 11 9 3 0 2 -5 -2 -12z m166 3 c0 -5 -8 -15 -17 -22 -16 -12 -17 -12 -6 2
7 9 10 19 6 22 -3 4 -1 7 5 7 7 0 12 -4 12 -9z m369 -16 c5 2 15 -3 22 -13 13
-15 12 -16 -3 -3 -10 7 -18 10 -18 6 0 -4 -7 -2 -15 5 -8 7 -15 18 -15 24 0 6
5 3 11 -7 6 -9 14 -15 18 -12z m88 1 c0 -8 -8 -11 -21 -8 -19 5 -19 6 0 13 10
4 19 8 20 8 0 1 1 -5 1 -13z m-840 -11 c5 -4 2 -5 -6 0 -11 6 -13 4 -8 -8 9
-23 0 -21 -13 2 -7 15 -7 19 5 17 8 -1 18 -6 22 -11z m67 -8 c4 4 4 -1 0 -12
-5 -11 -9 -14 -12 -7 -2 7 -8 10 -13 7 -5 -4 -6 2 -2 11 5 13 3 15 -7 9 -9 -6
-11 -4 -5 5 6 10 11 10 20 -3 7 -9 15 -14 19 -10z m49 9 c4 -10 0 -12 -15 -8
-15 4 -17 7 -6 13 17 11 15 11 21 -5z m207 3 c0 -4 -9 -7 -19 -6 -11 0 -18 4
-16 7 6 9 35 8 35 -1z m149 2 c10 -7 7 -9 -12 -8 -14 1 -23 5 -20 10 6 9 15 9
32 -2z m76 0 c-9 -8 -36 -10 -30 -2 2 4 11 8 20 8 8 0 13 -3 10 -6z m60 -1 c3
-6 -1 -7 -9 -4 -18 7 -21 14 -7 14 6 0 13 -4 16 -10z m68 -4 c4 -10 0 -12 -15
-8 -15 4 -17 7 -6 13 17 11 15 11 21 -5z m-760 -3 c3 -5 -8 -8 -23 -8 -15 0
-26 3 -23 8 2 4 13 7 23 7 10 0 21 -3 23 -7z m18 -26 c-10 -9 -11 -8 -5 6 3
10 9 15 12 12 3 -3 0 -11 -7 -18z m652 3 c-3 -11 -10 -23 -16 -27 -5 -3 -8 -2
-5 3 3 5 8 17 11 27 9 24 16 22 10 -3z m40 5 c-3 -9 -8 -14 -10 -11 -3 3 -2 9
2 15 9 16 15 13 8 -4z m-373 -10 c-7 -9 -15 -13 -18 -10 -3 3 -14 -3 -24 -12
-18 -16 -18 -16 -12 0 3 9 10 18 15 18 5 1 13 2 18 3 5 0 13 4 17 9 14 13 17
7 4 -8z m107 -7 c-3 -8 -6 -5 -6 6 -1 11 2 17 5 13 3 -3 4 -12 1 -19z m167 6
c3 -8 2 -13 -3 -9 -5 3 -11 0 -13 -7 -3 -7 -7 -5 -11 6 -4 10 -3 15 3 11 6 -3
10 -1 10 4 0 16 7 13 14 -5z m-536 -20 c1 -1 -6 -4 -17 -7 -15 -3 -18 -1 -14
11 5 11 3 13 -7 7 -9 -5 -11 -4 -6 4 6 9 12 9 24 -1 10 -7 18 -13 20 -14z m32
17 c0 -6 -4 -12 -8 -15 -5 -3 -9 1 -9 9 0 8 4 15 9 15 4 0 8 -4 8 -9z m125 0
c-9 -8 -36 -10 -30 -2 2 4 11 8 20 8 8 0 13 -3 10 -6z m248 -5 c4 -10 1 -13
-8 -9 -8 3 -12 9 -9 14 7 12 11 11 17 -5z m67 0 c0 -2 -9 -6 -20 -9 -11 -3
-18 -1 -14 4 5 9 34 13 34 5z m-197 -27 c-4 -15 -8 -17 -14 -8 -6 11 4 28 18
29 0 0 -1 -9 -4 -21z m-323 -4 c0 -11 -29 -11 -33 -1 -4 10 1 12 14 9 10 -3
19 -7 19 -8z m240 0 c0 -11 -29 -11 -33 -1 -4 10 1 12 14 9 10 -3 19 -7 19 -8z
m240 -5 c0 -5 -2 -10 -4 -10 -3 0 -8 5 -11 10 -3 6 -1 10 4 10 6 0 11 -4 11
-10z m-365 -9 c3 -5 0 -13 -6 -17 -8 -5 -9 -3 -4 6 6 10 4 12 -9 7 -10 -4 -15
-3 -11 3 8 13 22 13 30 1z m-158 -16 c0 -8 -4 -12 -9 -9 -4 3 -8 9 -8 15 0 5
4 9 8 9 5 0 9 -7 9 -15z m117 -1 c3 -8 2 -12 -4 -9 -6 3 -10 10 -10 16 0 14 7
11 14 -7z m123 9 c-4 -3 -1 -13 6 -22 11 -14 10 -14 -5 -2 -21 15 -23 31 -6
31 6 0 8 -3 5 -7z m93 -3 c18 -12 2 -12 -25 0 -13 6 -15 9 -5 9 8 0 22 -4 30
-9z m-277 -23 c3 -7 -3 -13 -14 -13 -13 0 -15 3 -7 13 6 7 12 13 13 13 2 0 5
-6 8 -13z"/>
<path d="M1322 4254 c-64 -18 -125 -59 -175 -114 -44 -49 -107 -164 -107 -195
0 -10 20 -39 44 -66 90 -100 102 -163 50 -258 -27 -50 -56 -81 -127 -134 l-38
-28 6 -62 c19 -195 90 -358 202 -463 54 -50 148 -108 162 -100 9 6 185 239
583 773 70 94 128 176 128 180 0 5 -19 40 -41 79 -133 222 -328 364 -539 392
-89 12 -94 12 -148 -4z"/>
<path d="M3484 3020 c-53 -22 -64 -72 -39 -171 39 -148 -25 -332 -158 -455
-104 -97 -219 -142 -402 -159 -72 -7 -102 -25 -110 -67 -23 -121 114 -308 280
-384 53 -25 64 -26 154 -21 53 3 107 9 121 12 14 3 34 8 45 10 48 10 143 47
194 76 282 158 422 482 342 792 -28 106 -64 170 -138 243 -98 96 -226 151
-289 124z"/>
<path d="M4113 2709 c-28 -10 -25 9 -27 -229 -2 -181 -3 -200 -27 -272 -71
-210 -217 -367 -459 -496 -96 -52 -234 -109 -346 -143 -69 -21 -85 -35 -86
-76 -5 -156 277 -443 433 -443 56 0 258 75 419 157 233 117 393 265 484 445
76 152 90 220 90 443 1 217 -7 253 -75 352 -54 78 -111 136 -185 189 -93 67
-172 93 -221 73z"/>
<path d="M4713 2219 c-32 -17 -34 -43 -8 -130 35 -117 47 -192 47 -299 1 -361
-254 -643 -715 -791 -67 -21 -140 -44 -162 -51 -176 -57 179 -364 400 -345
108 9 377 107 518 189 405 235 553 574 447 1023 -31 135 -56 188 -110 242
-123 119 -337 202 -417 162z"/>
<path d="M5324 1498 c-28 -13 -39 -38 -54 -123 -45 -263 -146 -429 -337 -555
-61 -40 -229 -120 -252 -120 -4 0 -13 -11 -20 -24 -38 -70 64 -183 183 -202
88 -13 326 104 462 229 137 125 231 315 270 549 l18 104 -23 37 c-53 86 -178
139 -247 105z"/>
</g>
</svg>
